<svg t="1673504996998" class="icon" viewBox="0 0 1024 1024" version="1.1" xmlns="http://www.w3.org/2000/svg" p-id="8038" data-spm-anchor-id="a313x.7781069.0.i11" width="200" height="200"><path d="M905.347743 946.665045l13.152312 13.47568c12.471641 12.783033 12.471641 33.506558 0 46.289591a31.392686 31.392686 0 0 1-45.167782 0l-27.753793-28.430472a293.500756 293.500756 0 0 0 59.769263-31.334799zM150.665731 173.239641l86.477099 88.60694h549.646472l86.540975-88.60694c11.086347-11.361809 28.296733-12.623345 40.744421-3.786604l4.42336 3.786604c11.086347 11.361809 12.317942 28.999361 3.694784 41.756445l-3.694784 4.53115L831.376218 308.717037l0.003993 169.838285c-29.969466-9.856749-62.21848-15.220273-95.816858-15.220273-73.622207 0-140.779041 25.755696-191.631719 68.112967l0.005988-54.691182c0-17.637552-14.298074-31.937622-31.937622-31.937622-17.427961 0-31.598285 13.960733-31.931634 31.310846l-0.005988 0.626776v131.399361c-20.410136 36.740242-31.937622 78.446784-31.937622 122.656437 0 103.34216 62.98099 192.997053 155.172928 237.540054a311.501598 311.501598 0 0 1-74.015438 13.098417l-17.282246 0.47108c-92.770807 0-176.303657-40.536827-234.653692-105.270394l-126.678581 129.776531c-11.086347 11.361809-28.296733 12.625341-40.744421 3.7886l-4.423361-3.7886c-11.086347-11.361809-12.317942-28.997365-3.694783-41.754449l3.694783-4.533146 133.058121-136.317754C209.40301 774.447407 192.623782 716.540507 192.623782 654.613458v-32.075353l-159.688109 0.027946c-17.639548 0-31.937622-14.655376-31.937622-32.73207 0-18.076694 14.298074-32.730074 31.937622-32.730075l159.688109-0.025949v-248.295049l-87.123837-89.253676c-12.471641-12.783033-12.471641-33.506558 0-46.289591a31.392686 31.392686 0 0 1 45.167782 0zM954.136452 557.095922l36.925879 0.007984c17.639548 0 31.937622 14.65338 31.937622 32.730075 0 15.599532-10.649201 28.650043-24.901364 31.935625-11.307914-23.559984-26.176873-45.311501-43.964133-64.673684zM512 0c88.910347 0 168.500897 66.112873 189.428023 164.372959 1.465138 6.655002 2.197708 11.870815 2.197708 15.645443 0 19.641637-15.264187 35.610448-32.915712 35.997692l-316.761325 0.005988c-17.930979 0-33.574425-16.118519-33.574425-36.00368l0.093817-3.30754c15.968811-96.507509 89.808593-170.576842 180.156132-176.347572L512 0z m0 65.462144c-50.716943 0-96.403712 33.923743-117.909708 85.09979l236.384312 0.005988-4.581052-10.112249C603.016234 94.455517 559.587057 65.462144 512 65.462144z" fill="#2c2c2c" p-id="8039" data-spm-anchor-id="a313x.7781069.0.i10" class=""></path><path d="M735.563353 512.998051c123.470846 0 223.563353 100.092507 223.563353 223.563353s-100.092507 223.563353-223.563353 223.563352-223.563353-100.092507-223.563353-223.563352 100.092507-223.563353 223.563353-223.563353z m127.750487 191.625731H607.812865c-17.639548 0-31.937622 14.298074-31.937621 31.937622s14.298074 31.937622 31.937621 31.937621h255.500975c17.639548 0 31.937622-14.298074 31.937622-31.937621s-14.298074-31.937622-31.937622-31.937622z" fill="#d81e06" p-id="8040" data-spm-anchor-id="a313x.7781069.0.i12" class="selected"></path></svg>
