<?xml version="1.0" standalone="no"?><!DOCTYPE svg PUBLIC "-//W3C//DTD SVG 1.1//EN" "http://www.w3.org/Graphics/SVG/1.1/DTD/svg11.dtd"><svg t="1753859555496" class="icon" viewBox="0 0 1024 1024" version="1.1" xmlns="http://www.w3.org/2000/svg" p-id="38460" xmlns:xlink="http://www.w3.org/1999/xlink" width="16" height="16"><path d="M252.691692 811.52c2.166154 6.380308 3.308308 13.312 3.308308 20.48v128C256 995.288615 227.288615 1024 192 1024h-128A64.078769 64.078769 0 0 1 0 960v-128c0-35.288615 28.711385-64 64-64h128c4.214154 0 8.388923 0.393846 12.366769 1.220923L769.220923 204.366769a62.109538 62.109538 0 0 1-1.220923-12.366769v-128C768 28.711385 796.711385 0 832 0h128C995.288615 0 1024 28.711385 1024 64v128c0 35.288615-28.711385 64-64 64h-128c-6.971077 0-13.942154-1.063385-20.48-3.308308L252.691692 811.52zM839.246769 768h120.753231c35.288615 0 64 28.711385 64 64v128c0 35.288615-28.711385 64-64 64h-128a64.078769 64.078769 0 0 1-64-64v-120.753231l-56.753231 56.753231H620.701538l275.298462-275.337846v90.584615L839.246769 768zM174.631385 256H64A64.078769 64.078769 0 0 1 0 192v-128C0 28.711385 28.711385 0 64 0h128C227.288615 0 256 28.711385 256 64v110.631385L302.631385 128H393.058462L128 393.058462V302.631385L174.631385 256z m489.984-128L128 664.654769v-90.584615L574.070154 128h90.545231z m231.384615 311.689846L439.689846 896H349.223385L896.039385 349.184l-0.039385 90.505846z" p-id="38461"></path></svg>