<?xml version="1.0" standalone="no"?><!DOCTYPE svg PUBLIC "-//W3C//DTD SVG 1.1//EN" "http://www.w3.org/Graphics/SVG/1.1/DTD/svg11.dtd"><svg t="1732871435229" class="icon" viewBox="0 0 1024 1024" version="1.1" xmlns="http://www.w3.org/2000/svg" p-id="11255" xmlns:xlink="http://www.w3.org/1999/xlink" width="200" height="200"><path d="M796.364674 1024H43.793948a37.785978 37.785978 0 0 1-37.785978-37.785978V37.785978A37.785978 37.785978 0 0 1 43.793948 0h752.570726a37.785978 37.785978 0 0 1 37.785978 37.785978v154.103813a37.785978 37.785978 0 0 1-75.571956 0V75.571956H81.579926v872.856088h676.99877V629.035769a37.785978 37.785978 0 0 1 75.571956 0V986.214022a37.785978 37.785978 0 0 1-37.785978 37.785978z" p-id="11256"></path><path d="M413.151882 350.779828h-214.120541a37.785978 37.785978 0 1 1 0-75.571956h214.120541a37.785978 37.785978 0 0 1 0 75.571956zM377.884969 538.450185h-178.853628a37.785978 37.785978 0 1 1 0-75.571956h178.853628a37.785978 37.785978 0 0 1 0 75.571956zM508.876359 726.120541h-309.845018a37.785978 37.785978 0 1 1 0-75.571956h309.845018a37.785978 37.785978 0 0 1 0 75.571956zM709.872571 589.549422a37.622239 37.622239 0 0 1-19.434588-5.41599 145.324871 145.324871 0 0 1-65.722411-85.824551c-10.076261-36.526445-5.138893-74.211661 14.018598-106.077835l114.756015-190.781403c19.170086-31.866175 50.116802-53.92059 87.14706-62.107552a145.287085 145.287085 0 0 1 106.606839 17.834982c67.674686 40.708093 90.862681 126.847528 51.703813 191.902386l-78.934908 131.230701a37.785978 37.785978 0 0 1-64.752571-38.957343l78.922313-131.218106c17.633456-29.410086 6.070947-68.972005-25.883395-88.167282a70.092989 70.092989 0 0 0-51.351144-8.816728 59.449938 59.449938 0 0 0-38.692841 27.268881l-114.806397 190.756211a59.399557 59.399557 0 0 0-5.957589 46.955376 70.017417 70.017417 0 0 0 31.85358 41.237097 37.785978 37.785978 0 0 1-19.522756 70.181156z" p-id="11257"></path><path d="M598.303173 884.267454a146.521427 146.521427 0 0 1-75.571955-21.223124c-67.725068-40.708093-90.925658-126.847528-51.754195-191.902387l78.934908-131.230701a37.785978 37.785978 0 1 1 64.752571 38.957343l-78.922313 131.218106c-17.696433 29.410086-6.083542 68.972005 25.883395 88.167282a70.092989 70.092989 0 0 0 51.351144 8.816728 59.449938 59.449938 0 0 0 38.692841-27.268881l114.756015-190.756211c17.633456-29.410086 6.070947-68.972005-25.89599-88.167282a37.789756 37.789756 0 0 1 38.957343-64.765166c67.674686 40.708093 90.862681 126.797146 51.640837 191.902386l-114.693038 190.756212c-19.170086 31.866175-50.116802 53.92059-87.147061 62.107552a143.422977 143.422977 0 0 1-30.984502 3.388143z" p-id="11258"></path></svg>