<?xml version="1.0" standalone="no"?><!DOCTYPE svg PUBLIC "-//W3C//DTD SVG 1.1//EN" "http://www.w3.org/Graphics/SVG/1.1/DTD/svg11.dtd"><svg t="1732871363163" class="icon" viewBox="0 0 1024 1024" version="1.1" xmlns="http://www.w3.org/2000/svg" p-id="8337" xmlns:xlink="http://www.w3.org/1999/xlink" width="200" height="200"><path d="M951.552 0C991.168 0 1023.36 31.808 1024 71.296v721.28c0 39.616-31.808 71.808-71.296 72.448h-87.68v86.528c0 39.616-31.808 71.808-71.296 72.448H72.448C32.832 1024 0.64 992.192 0 952.704V231.424c0-39.616 31.808-71.808 71.296-72.448h87.68V72.448C158.976 32.832 190.784 0.64 230.272 0h721.28zM158.976 229.12H72.448a2.368 2.368 0 0 0-2.304 2.176v720.256c0 1.216 0.96 2.24 2.176 2.304h720.256c1.216 0 2.24-0.96 2.304-2.176V231.424a2.368 2.368 0 0 0-2.176-2.304H158.976z m279.04 284.096a18.688 18.688 0 0 1 25.856-3.84l0.32 0.256 11.136 8.512 1.28 0.96a153.216 153.216 0 0 1 16 227.584l-1.728 1.792-98.88 98.944-1.856 1.792c-59.968 58.048-155.648 57.6-214.848-1.664a153.216 153.216 0 0 1-1.664-214.912l1.792-1.792 76.544-76.544a18.688 18.688 0 0 1 26.112-0.256l0.32 0.256 19.84 19.84a18.688 18.688 0 0 1 0.32 26.176l-0.32 0.32-76.544 76.48-1.024 1.088a87.744 87.744 0 0 0 0.896 123.072c33.92 33.92 88.704 34.176 123.072 0.896l1.024-1.024 98.944-98.944 1.024-1.024a87.744 87.744 0 0 0-8.832-130.176l-1.088-0.768-11.136-8.512a18.688 18.688 0 0 1-3.84-25.856l0.256-0.384 16.96-22.272z m513.536-443.072H231.424a2.368 2.368 0 0 0-2.304 2.176v86.656h563.456c39.616 0 71.808 31.808 72.448 71.296V794.88h86.528c1.216 0 2.24-0.96 2.304-2.176V72.448a2.368 2.368 0 0 0-2.176-2.304h-0.128zM474.88 333.824a153.216 153.216 0 0 1 214.848 1.6c59.264 59.2 59.776 154.88 1.664 214.912l-1.792 1.792L615.04 626.688a18.688 18.688 0 0 1-26.176 0.32l-0.32-0.32-19.84-19.84a18.688 18.688 0 0 1-0.256-26.112l0.256-0.32 74.624-74.56 1.024-1.088a87.744 87.744 0 0 0-0.896-123.072 87.744 87.744 0 0 0-123.072-0.896l-1.024 1.024-98.944 98.944-1.024 1.024a87.744 87.744 0 0 0 10.432 131.328l0.96 0.768 11.392 8.256a18.688 18.688 0 0 1 4.352 25.792l-0.256 0.32-16.448 22.72a18.688 18.688 0 0 1-25.792 4.352l-0.384-0.256-11.328-8.256-1.28-0.96a153.216 153.216 0 0 1-18.688-229.632l1.792-1.728L472.96 335.552l1.856-1.792z" p-id="8338"></path></svg>