<?xml version="1.0" standalone="no"?><!DOCTYPE svg PUBLIC "-//W3C//DTD SVG 1.1//EN" "http://www.w3.org/Graphics/SVG/1.1/DTD/svg11.dtd"><svg t="1733108624849" class="icon" viewBox="0 0 1024 1024" version="1.1" xmlns="http://www.w3.org/2000/svg" p-id="6949" xmlns:xlink="http://www.w3.org/1999/xlink" width="200" height="200"><path d="M107.52 513.024c0-108.544 3.072-216.576-1.024-325.12-3.584-90.624 63.488-130.048 132.608-131.072 142.336-2.048 284.672-0.512 427.52-0.512 24.576 0 49.152-2.048 72.192 11.264 35.328 20.48 59.904 49.152 60.416 91.136 1.024 121.344 1.024 242.176 1.536 363.52v156.16c0 34.816-9.216 43.52-44.032 43.52h-501.76c-15.36 0-30.72 0.512-45.568 5.12-33.28 9.216-45.056 24.576-45.056 58.368v30.72c0 63.488 27.648 91.136 92.16 91.136 125.44 0.512 250.88 0 376.32 0h153.6c53.248 0 77.824-24.576 77.824-78.336v-465.92-143.36c0-29.184 10.24-42.496 29.696-41.984 20.48 0.512 33.28 16.896 33.28 43.52 0 209.92 0.512 419.84 0 629.76 0 71.68-51.712 126.464-123.392 126.976-190.976 1.536-381.952 1.536-573.44 0-68.096-1.024-122.88-61.44-122.88-129.536v-335.36z" p-id="6950"></path><path d="M519.68 787.456h235.52c7.68 0 15.36-0.512 23.04 1.024 14.848 2.56 25.088 11.264 26.112 27.136 1.024 16.384-7.168 28.16-22.528 32.768-8.192 2.048-16.896 1.536-25.6 1.536H278.016c-6.656 0-13.824 0.512-20.48-0.512-16.896-3.584-27.648-13.312-27.136-31.744 0.512-18.432 11.776-28.16 29.184-29.184 17.92-1.536 35.84-0.512 53.76-0.512 68.608-0.512 137.216-0.512 206.336-0.512z" p-id="6951"></path></svg>