<?xml version="1.0" standalone="no"?><!DOCTYPE svg PUBLIC "-//W3C//DTD SVG 1.1//EN" "http://www.w3.org/Graphics/SVG/1.1/DTD/svg11.dtd"><svg t="1719467420529" class="icon" viewBox="0 0 1024 1024" version="1.1" xmlns="http://www.w3.org/2000/svg" p-id="6175" xmlns:xlink="http://www.w3.org/1999/xlink" width="16" height="16"><path d="M199.252601 1023.997013A134.399272 134.399272 0 0 1 64 890.45107V133.548503A134.399272 134.399272 0 0 1 199.252601 0.00256h661.756415A99.412795 99.412795 0 0 1 959.995147 98.98869v791.46238A134.399272 134.399272 0 0 1 824.742546 1023.997013z m0-963.834779a73.812934 73.812934 0 0 0-74.239598 73.386269v756.902567a73.812934 73.812934 0 0 0 74.239598 73.386269h627.196602a73.812934 73.812934 0 0 0 73.812934-73.386269V133.548503a73.812934 73.812934 0 0 0-73.812934-73.386269 39.253121 39.253121 0 0 0-39.25312 38.826456v34.559813a100.266124 100.266124 0 0 1-99.83946 98.986131H338.345181a99.412795 99.412795 0 0 1-100.266124-98.986131v-34.559813a38.826456 38.826456 0 0 0-38.826456-38.826456z m139.09258 0a39.253121 39.253121 0 0 0-39.253121 38.826456v34.559813a38.826456 38.826456 0 0 0 39.253121 38.399792h346.878121a38.399792 38.399792 0 0 0 38.826456-38.399792v-34.559813a38.826456 38.826456 0 0 0-38.826456-38.826456z" p-id="6176"></path><path d="M339.625174 829.438067a104.532767 104.532767 0 1 1 75.092926-178.3457 104.532767 104.532767 0 0 1 0 148.052531 105.81276 105.81276 0 0 1-74.666262 30.293169z m0-155.73249a50.773058 50.773058 0 0 0-37.119799 15.359917 51.199723 51.199723 0 0 0-15.359917 36.693135 50.346394 50.346394 0 0 0 15.359917 36.26647 52.90638 52.90638 0 0 0 37.119799 15.359917 52.479716 52.479716 0 0 0 37.119799-15.359917v-4.693308a42.666436 42.666436 0 0 0 14.506588-31.999827 53.333044 53.333044 0 0 0-15.359917-37.973127 52.479716 52.479716 0 0 0-37.119799-13.65326z m189.438974 78.506242a26.879854 26.879854 0 1 1 0-53.759709h253.438627a26.879854 26.879854 0 0 1 0 53.759709z m-221.012137-220.585472a26.879854 26.879854 0 0 1-19.199896-7.679958L226.132455 463.786714a26.45319 26.45319 0 0 1-7.679958-18.346567 27.306519 27.306519 0 0 1 8.106622-18.773231 26.879854 26.879854 0 0 1 18.773232-7.679959 28.586512 28.586512 0 0 1 19.199896 7.679959l42.666436 42.666435 107.946082-107.092753a25.599861 25.599861 0 0 1 18.773231-7.679959 21.333218 21.333218 0 0 1 7.253294 0 23.893204 23.893204 0 0 1 11.946602 6.82663 26.026526 26.026526 0 0 1 0 37.546463l-127.999306 124.159328a25.599861 25.599861 0 0 1-18.773232 7.679958zM528.210819 469.333351a26.879854 26.879854 0 1 1 0-53.333044h253.438627a26.879854 26.879854 0 1 1 0 53.333044z" p-id="6177"></path></svg>