<?xml version="1.0" standalone="no"?><!DOCTYPE svg PUBLIC "-//W3C//DTD SVG 1.1//EN" "http://www.w3.org/Graphics/SVG/1.1/DTD/svg11.dtd"><svg t="1778824930536" class="icon" viewBox="0 0 1024 1024" version="1.1" xmlns="http://www.w3.org/2000/svg" p-id="9812" xmlns:xlink="http://www.w3.org/1999/xlink" width="16" height="16"><path d="M444.55 335.37l50.22-105.13c3.1-6.58 9.69-24.45 16.92-24.45 7.24 0 13.82 17.87 16.93 24.45l50.22 105.13h431.23v655.98H13.31V335.37h431.24zM87.9 409.58v507.45h847.57V409.58H87.9z m207.52 345.46c-50.78 0-92.02-40.99-92.02-91.68s41.24-91.77 92.02-91.77 92.02 41.08 92.02 91.77c0 50.61-41.17 91.68-92.02 91.68z m358.55-183.46c20.09 0 36.38 13.11 36.38 29.28v124.89c0 10.45-6.93 20.13-18.19 25.36-11.26 5.23-25.13 5.23-36.38 0-11.26-5.23-18.19-14.9-18.19-25.36v-124.8c0-7.77 3.84-15.21 10.65-20.7 6.82-5.49 16.07-8.58 25.72-8.58v-0.09h0.01zM318.36 176.27c-16.59 9.26-37.12 7.62-52.03-4.14a47.03 47.03 0 0 1-16.14-49.64 46.71 46.71 0 0 1 22.38-28.12c148.57-82.65 311.81-82.65 484.83-1.51a46.892 46.892 0 0 1 26.71 38.54 46.894 46.894 0 0 1-20.02 42.41c-13.77 9.55-31.59 1.29-46.75-5.86-146.69-68.73-278.06-59.01-398.98 8.22v0.1z m477.06 395.78c20.09 0 36.38 13.11 36.38 29.28v124.89c0 10.45-6.93 20.13-18.19 25.36-11.26 5.23-25.13 5.23-36.38 0-11.26-5.23-18.19-14.9-18.19-25.36v-124.8c0-7.77 3.84-15.21 10.65-20.7 6.82-5.49 16.07-8.58 25.72-8.58v-0.09h0.01z" p-id="9813"></path></svg>