<?xml version="1.0" standalone="no"?><!DOCTYPE svg PUBLIC "-//W3C//DTD SVG 1.1//EN" "http://www.w3.org/Graphics/SVG/1.1/DTD/svg11.dtd"><svg t="1753857932017" class="icon" viewBox="0 0 1024 1024" version="1.1" xmlns="http://www.w3.org/2000/svg" p-id="9997" xmlns:xlink="http://www.w3.org/1999/xlink" width="16" height="16"><path d="M702.9632 379.9168a1493.5424 1493.5424 0 0 0 45.9776 52.0576c13.6192 15.6544 28.7744 33.0112 45.4656 52.0704a6377.3952 6377.3952 0 0 0 51.5968 58.1888c22.4768 25.856 41.0368 48.9984 55.6928 69.4144 14.6432 20.416 26.2272 39.1296 34.7392 56.1536 8.512 17.0112 14.3104 32.6656 17.3696 46.9632s4.5952 28.5824 4.5952 42.88v66.3552c0 20.416-3.4048 38.7968-10.2144 55.1296a129.8688 129.8688 0 0 1-28.096 42.368 127.2704 127.2704 0 0 1-40.8704 27.5584 123.5968 123.5968 0 0 1-48.5376 9.7024H200.2688a151.68 151.68 0 0 1-52.6208-9.1904 135.488 135.488 0 0 1-43.9424-26.0352 126.5536 126.5536 0 0 1-30.144-40.32c-7.488-15.6544-11.2384-33.344-11.2384-53.0944v-78.6048c0-16.3328 1.5232-31.9872 4.5952-46.9632 3.0592-14.9632 8.6912-30.6304 16.8576-46.9504 8.1664-16.3328 19.4048-33.856 33.7152-52.5824 14.3104-18.7136 32.3584-39.3088 54.1568-61.76a4164.5568 4164.5568 0 0 1 54.6688-57.6768 15718.912 15718.912 0 0 0 50.5728-52.5824c17.7152-18.3808 34.7392-36.0704 51.0848-53.0816h374.9888zM510.8736 766.8352a124.3904 124.3904 0 0 0 50.0608-10.2016 131.3664 131.3664 0 0 0 40.8704-27.5584c11.584-11.5712 20.7744-25.3568 27.5968-41.344a127.6672 127.6672 0 0 0 10.2144-50.5344 124.0576 124.0576 0 0 0-10.2144-50.0224 131.072 131.072 0 0 0-27.5968-40.832 131.1744 131.1744 0 0 0-40.8704-27.5712 124.2368 124.2368 0 0 0-50.0608-10.2144 127.808 127.808 0 0 0-50.5728 10.2144 129.5872 129.5872 0 0 0-41.3824 27.5712 130.816 130.816 0 0 0-27.584 40.832 124.0576 124.0576 0 0 0-10.2144 50.0224c0 17.6896 3.4048 34.5472 10.2144 50.5344 6.8096 16 16 29.7728 27.584 41.344a129.344 129.344 0 0 0 41.3824 27.5584c16 6.7968 32.8704 10.2016 50.5728 10.2016z m511.9104-510.4384v64.32c0 17.6896-6.2976 32.6656-18.9056 44.9152-12.5952 12.2496-27.7504 18.3808-45.4656 18.3808h-127.7184c-17.7152 0-32.6912-6.1184-44.9536-18.3808-12.2624-12.2496-18.3936-27.2256-18.3936-44.9152v-64.32H255.4368v64.32c0 17.6896-6.1312 32.6656-18.3936 44.9152-12.2624 12.2496-27.2512 18.3808-44.9536 18.3808H64.3712c-17.7152 0-32.8704-6.1184-45.4656-18.3808C6.2976 353.3824 0 338.4064 0 320.7168v-66.3552c0-8.1664 2.048-15.1424 6.1312-20.928A74.4704 74.4704 0 0 1 21.4528 217.6a122.9312 122.9312 0 0 1 20.4288-12.7616 250.1888 250.1888 0 0 0 22.4768-12.7616c7.488-4.0832 24.3456-13.0944 50.5728-27.0464 26.2272-13.952 59.264-28.416 99.1104-43.392 39.8464-14.976 85.1456-28.2496 135.8976-39.808 50.752-11.5712 104.7296-17.3568 161.9456-17.3568 65.3952 0 123.8016 5.7856 175.232 17.3568 51.4304 11.5712 96.0512 24.8448 133.8496 39.808 37.8112 14.976 68.1216 29.44 90.944 43.392 22.8224 13.952 38.3104 22.976 46.4896 27.0464 8.1792 4.7616 16 9.024 23.5008 12.7616a122.2144 122.2144 0 0 1 20.4416 12.7616c6.1312 4.7616 11.072 10.0352 14.8096 15.8208 3.7504 5.7856 5.6192 12.7616 5.6192 20.928v2.048z m0 0" p-id="9998"></path></svg>