<?xml version="1.0" standalone="no"?><!DOCTYPE svg PUBLIC "-//W3C//DTD SVG 1.1//EN" "http://www.w3.org/Graphics/SVG/1.1/DTD/svg11.dtd"><svg t="1778825148956" class="icon" viewBox="0 0 1024 1024" version="1.1" xmlns="http://www.w3.org/2000/svg" p-id="15130" xmlns:xlink="http://www.w3.org/1999/xlink" width="16" height="16"><path d="M832 576a192 192 0 1 1 0 384 192 192 0 0 1 0-384z m32-512c17.664 0 32 14.336 32 32l0.32 416.384h-64V128.128H192V896h448.128v63.936H159.68a32 32 0 0 1-32-32V96a32 32 0 0 1 32-32z m-32 576a128 128 0 1 0 0 256 128 128 0 0 0 0-256z m-23.552 63.36l81.856 51.072a16 16 0 0 1 0 27.136l-81.856 51.136a16 16 0 0 1-24.448-13.568V716.8a16 16 0 0 1 24.448-13.568z m-488.32-127.104h192v63.936h-192v-64zM640.128 448v63.936l-320.128-0.128V448h320.128z m64-127.872V384H320.128V320h384.192z" p-id="15131"></path></svg>
