<?xml version="1.0" standalone="no"?><!DOCTYPE svg PUBLIC "-//W3C//DTD SVG 1.1//EN" "http://www.w3.org/Graphics/SVG/1.1/DTD/svg11.dtd"><svg t="1733740506066" class="icon" viewBox="0 0 1024 1024" version="1.1" xmlns="http://www.w3.org/2000/svg" p-id="55290" xmlns:xlink="http://www.w3.org/1999/xlink" width="200" height="200"><path d="M374.144 96c0-17.6 14.4-32 32-32L928 64c17.6 0 32 14.4 32 32l0 30.016c0 17.6-14.4 32-32 32L406.144 158.016c-17.6 0-32-14.4-32-32L374.144 96z"  p-id="55291"></path><path d="M374.144 223.328c0-17.6 14.4-32 32-32l452.928 0c17.6 0 32 14.4 32 32l0 32c0 17.6-14.4 32-32 32L406.144 287.328c-17.6 0-32-14.4-32-32L374.144 223.328z" p-id="55292"></path><path d="M374.144 434.016c0-17.6 14.4-32 32-32L928 402.016c17.6 0 32 14.4 32 32l0 29.504c0 17.6-14.4 32-32 32L406.144 495.52c-17.6 0-32-14.4-32-32L374.144 434.016z" p-id="55293"></path><path d="M374.144 562.08c0-17.6 14.4-32 32-32l452.928 0c17.6 0 32 14.4 32 32l0 30.016c0 17.6-14.4 32-32 32L406.144 624.096c-17.6 0-32-14.4-32-32L374.144 562.08z" p-id="55294"></path><path d="M374.144 768.384c0-17.6 14.4-32 32-32L928 736.384c17.6 0 32 14.4 32 32l0 32c0 17.6-14.4 32-32 32L406.144 832.384c-17.6 0-32-14.4-32-32L374.144 768.384z" p-id="55295"></path><path d="M374.144 897.44c0-17.6 14.4-32 32-32l452.928 0c17.6 0 32 14.4 32 32L891.072 928c0 17.6-14.4 32-32 32L406.144 960c-17.6 0-32-14.4-32-32L374.144 897.44z" p-id="55296"></path><path d="M249.024 737.536l-147.904 0c-20.448 0-37.12 16.672-37.12 37.088l0 148.608c0 20.48 16.672 37.12 37.12 37.12l147.904 0c20.448 0 37.12-16.672 37.12-37.12l0-148.608C286.144 754.176 269.472 737.536 249.024 737.536L249.024 737.536zM249.024 737.536" p-id="55297"></path><path d="M246.784 64l-146.112 0c-20.192 0-36.672 16.512-36.672 36.704l0 146.752c0 20.224 16.48 36.672 36.672 36.672l146.112 0c20.192 0 36.672-16.48 36.672-36.672l0-146.752C283.456 80.512 266.976 64 246.784 64L246.784 64z" p-id="55298"></path><path d="M240.832 411.168l-141.344 0c-19.552 0-35.488 15.904-35.488 35.456l0 141.984c0 19.584 15.936 35.488 35.488 35.488l141.344 0c19.552 0 35.488-15.904 35.488-35.488l0-141.984C276.32 427.072 260.384 411.168 240.832 411.168L240.832 411.168z" p-id="55299"></path></svg>
