<?xml version="1.0" standalone="no"?><!DOCTYPE svg PUBLIC "-//W3C//DTD SVG 1.1//EN" "http://www.w3.org/Graphics/SVG/1.1/DTD/svg11.dtd"><svg t="1733121931967" class="icon" viewBox="0 0 1024 1024" version="1.1" xmlns="http://www.w3.org/2000/svg" p-id="36631" xmlns:xlink="http://www.w3.org/1999/xlink" width="200" height="200"><path d="M127.8 847.2v-672c0-26.5 21.5-48 48-48h544c26.5 0 48 21.5 48 48v272.2h64V175.2c0-61.8-50.2-112-112-112h-544c-61.8 0-112 50.2-112 112v672c0 61.8 50.2 112 112 112h464.3v-64H175.8c-26.5 0-48-21.6-48-48z" p-id="36632"></path><path d="M256.1 320.1h384v64h-384zM256.3 512.1h192v64h-192zM959.5 913.8L817.1 771.3c47.2-68.5 40.4-163.3-20.5-224.2-68.6-68.6-180.3-68.6-248.9 0-33.2 33.2-51.5 77.4-51.5 124.5s18.3 91.2 51.5 124.5c34.3 34.3 79.4 51.5 124.5 51.5 34.9 0 69.8-10.3 99.7-30.9L914.3 959l45.2-45.2z m-366.6-163c-21.2-21.2-32.8-49.3-32.8-79.2 0-29.9 11.6-58 32.8-79.2 21.8-21.8 50.5-32.8 79.2-32.8s57.4 10.9 79.2 32.8c43.7 43.7 43.7 114.7 0 158.4-43.7 43.6-114.7 43.6-158.4 0z" p-id="36633"></path></svg>