<?xml version="1.0" standalone="no"?><!DOCTYPE svg PUBLIC "-//W3C//DTD SVG 1.1//EN" "http://www.w3.org/Graphics/SVG/1.1/DTD/svg11.dtd"><svg t="1732865461842" class="icon" viewBox="0 0 1024 1024" version="1.1" xmlns="http://www.w3.org/2000/svg" p-id="17198" xmlns:xlink="http://www.w3.org/1999/xlink" width="200" height="200"><path d="M176.872727 521.309091c-102.4 60.509091-139.636364 190.836364-79.127272 293.236364s190.836364 139.636364 293.236363 79.127272 139.636364-190.836364 79.127273-293.236363S279.272727 465.454545 176.872727 521.309091z m186.181818 325.818182c-79.127273 46.545455-176.872727 18.618182-218.763636-60.509091-46.545455-79.127273-18.618182-176.872727 60.509091-218.763637 79.127273-46.545455 176.872727-18.618182 218.763636 60.509091 46.545455 74.472727 18.618182 176.872727-60.509091 218.763637z m484.072728-325.818182c-102.4-60.509091-232.727273-23.272727-293.236364 79.127273-60.509091 102.4-23.272727 232.727273 79.127273 293.236363 102.4 60.509091 232.727273 23.272727 293.236363-79.127272 55.854545-102.4 23.272727-232.727273-79.127272-293.236364z m32.581818 269.963636c-46.545455 79.127273-144.290909 102.4-218.763636 60.509091-79.127273-46.545455-102.4-144.290909-60.509091-218.763636 46.545455-79.127273 144.290909-102.4 218.763636-60.509091 79.127273 41.890909 107.054545 139.636364 60.509091 218.763636z m0 0"  p-id="17199"></path><path d="M228.072727 614.4c-51.2 27.927273-69.818182 97.745455-41.890909 148.945455 32.581818 51.2 97.745455 69.818182 148.945455 41.890909s69.818182-97.745455 41.890909-148.945455c-27.927273-55.854545-97.745455-74.472727-148.945455-41.890909z m83.781818 144.290909c-27.927273 13.963636-60.509091 4.654545-79.127272-23.272727-13.963636-27.927273-4.654545-60.509091 23.272727-79.127273 27.927273-13.963636 60.509091-4.654545 79.127273 23.272727 13.963636 27.927273 4.654545 60.509091-23.272728 79.127273z m428.218182-162.909091c-60.509091 0-111.709091 46.545455-111.709091 107.054546 0 60.509091 46.545455 111.709091 107.054546 111.709091 60.509091 0 107.054545-51.2 107.054545-111.709091 4.654545-55.854545-41.890909-107.054545-102.4-107.054546z m27.927273 162.909091c-27.927273 13.963636-60.509091 4.654545-79.127273-18.618182-13.963636-27.927273-4.654545-60.509091 18.618182-79.127272 27.927273-13.963636 60.509091-4.654545 79.127273 23.272727 18.618182 23.272727 9.309091 60.509091-18.618182 74.472727z m-41.890909-446.836364c0-116.363636-97.745455-214.109091-214.109091-214.10909-116.363636 0-214.109091 97.745455-214.109091 214.10909 0 41.890909 9.309091 74.472727 27.927273 107.054546 37.236364 65.163636 107.054545 107.054545 186.181818 107.054545 116.363636 0 214.109091-93.090909 214.109091-214.109091zM512 474.763636c-88.436364 0-162.909091-74.472727-162.909091-162.909091S423.563636 148.945455 512 148.945455s162.909091 74.472727 162.909091 162.90909-74.472727 162.909091-162.909091 162.909091z m0 0"  p-id="17200"></path><path d="M512 204.8c-60.509091 0-111.709091 51.2-111.709091 111.709091 0 60.509091 51.2 107.054545 111.709091 107.054545 60.509091 0 111.709091-51.2 111.709091-111.709091-4.654545-55.854545-51.2-107.054545-111.709091-107.054545zM512 372.363636c-32.581818 0-55.854545-27.927273-55.854545-55.854545 0-32.581818 27.927273-55.854545 55.854545-55.854546s55.854545 27.927273 55.854545 55.854546S544.581818 372.363636 512 372.363636z m0 0"  p-id="17201"></path></svg>
