<?xml version="1.0" standalone="no"?><!DOCTYPE svg PUBLIC "-//W3C//DTD SVG 1.1//EN" "http://www.w3.org/Graphics/SVG/1.1/DTD/svg11.dtd"><svg t="1713859750792" class="icon" viewBox="0 0 1024 1024" version="1.1" xmlns="http://www.w3.org/2000/svg" p-id="6254" xmlns:xlink="http://www.w3.org/1999/xlink" width="16" height="16"><path d="M724.992 938.666667a213.640533 213.640533 0 1 1 0-427.2128 213.640533 213.640533 0 0 1 213.674667 213.6064 213.435733 213.435733 0 0 1-213.674667 213.6064z m0-283.5456c-25.1904 0.238933-48.469333 13.653333-61.201067 35.396266a70.826667 70.826667 0 0 0 0 71.304534 71.748267 71.748267 0 0 0 61.201067 35.6352 71.2704 71.2704 0 1 0 0-142.574934v0.238934zM299.008 938.666667a213.640533 213.640533 0 1 1 0-427.2128 213.640533 213.640533 0 0 1 213.674667 213.6064A213.435733 213.435733 0 0 1 299.008 938.666667z m0-283.5456c-25.224533 0.238933-48.469333 13.653333-61.201067 35.396266a70.826667 70.826667 0 0 0 0 71.304534 71.748267 71.748267 0 0 0 61.201067 35.6352 71.2704 71.2704 0 1 0 0-142.574934v0.238934z m213.674667-95.505067a236.3392 236.3392 0 0 1-208.0768-118.101333 239.342933 239.342933 0 0 1 0-239.4112 241.0496 241.0496 0 0 1 208.2816-116.736 237.192533 237.192533 0 1 1 0 474.248533h-0.2048z m0-331.946667a96.187733 96.187733 0 0 0-84.0704 47.104 95.232 95.232 0 0 0 0 95.470934 99.328 99.328 0 0 0 84.0704 47.069866 94.8224 94.8224 0 0 0 0-189.44V227.669333z" p-id="6255" data-spm-anchor-id="a313x.search_index.0.i2.587b3a81eI1k2x" class="selected"></path></svg>
