<?xml version="1.0" standalone="no"?><!DOCTYPE svg PUBLIC "-//W3C//DTD SVG 1.1//EN" "http://www.w3.org/Graphics/SVG/1.1/DTD/svg11.dtd"><svg t="1764663531743" class="icon" viewBox="0 0 1024 1024" version="1.1" xmlns="http://www.w3.org/2000/svg" p-id="8417" width="16" height="16" xmlns:xlink="http://www.w3.org/1999/xlink"><path d="M894.634667 699.2a111.018667 111.018667 0 0 0-129.194667 12.8l-53.013333-30.72v-151.68c0-15.701333-8.384-30.293333-21.973334-38.101333l-136.021333-78.293334v-67.114666A112.021333 112.021333 0 0 0 518.442667 128a112.021333 112.021333 0 1 0-36.010667 218.090667v67.114666l-136 78.293334a43.968 43.968 0 0 0-21.994667 38.101333v151.594667l-53.013333 30.72a111.04 111.04 0 0 0-129.194667-12.8 112.192 112.192 0 0 0-41.002666 152.874666 111.189333 111.189333 0 0 0 152.213333 41.002667 112 112 0 0 0 53.589333-118.784l48.704-28.309333 140.586667 81.002666c6.826667 3.904 14.421333 5.888 22.016 5.888s15.189333-1.984 21.994667-5.888l140.501333-80.896 48.704 28.288a112.213333 112.213333 0 0 0 53.589333 118.826667 111.082667 111.082667 0 0 0 152.213334-41.024c30.805333-53.589333 12.586667-122.005333-40.704-152.896z m-673.002667 138.410667a47.573333 47.573333 0 0 1-65.194667-17.6 48 48 0 0 1 17.493334-65.493334 47.573333 47.573333 0 0 1 65.194666 17.578667 48 48 0 0 1-17.493333 65.493333zM470.336 240a48 48 0 1 1 96.021333 0.021333 48 48 0 0 1-96.021333-0.021333z m170.005333 446.208l-122.026666 70.293333-121.984-70.293333v-140.416l122.005333-70.293333 122.005333 70.293333v140.416z m239.893334 133.888a47.701333 47.701333 0 0 1-65.194667 17.6 48.085333 48.085333 0 0 1-17.493333-65.493333 47.701333 47.701333 0 0 1 65.194666-17.6 47.978667 47.978667 0 0 1 17.493334 65.493333z" p-id="8418"></path></svg>
