<?xml version="1.0" standalone="no"?><!DOCTYPE svg PUBLIC "-//W3C//DTD SVG 1.1//EN" "http://www.w3.org/Graphics/SVG/1.1/DTD/svg11.dtd"><svg t="1757929259899" class="icon" viewBox="0 0 1024 1024" version="1.1" xmlns="http://www.w3.org/2000/svg" p-id="6207" width="16" height="16" xmlns:xlink="http://www.w3.org/1999/xlink"><path d="M361.557333 467.541333c0-20.608-17.066667-37.333333-38.101333-37.333333-30.293333 0-59.349333-11.818667-80.768-32.810667a110.933333 110.933333 0 0 1-33.450667-79.189333 110.933333 110.933333 0 0 1 33.450667-79.189333 115.413333 115.413333 0 0 1 80.768-32.853334 38.442667 38.442667 0 0 0 26.282667-11.221333 36.949333 36.949333 0 0 0 0-52.138667 38.442667 38.442667 0 0 0-26.282667-11.264c-38.912 0-76.885333 11.690667-108.8 33.493334a187.221333 187.221333 0 0 0-69.76 88.490666 183.210667 183.210667 0 0 0-5.674667 111.701334c9.813333 36.906667 30.933333 69.973333 60.501334 94.805333a264.448 264.448 0 0 0-104.362667 96.213333 257.450667 257.450667 0 0 0-38.485333 135.253334 36.992 36.992 0 0 0 11.52 25.770666 38.485333 38.485333 0 0 0 53.162666 0 36.992 36.992 0 0 0 11.52-25.770666 183.466667 183.466667 0 0 1 14.506667-71.424 186.453333 186.453333 0 0 1 41.258667-60.544 190.72 190.72 0 0 1 61.738666-40.448 193.706667 193.706667 0 0 1 72.874667-14.208 37.717333 37.717333 0 0 0 38.101333-37.290667z" p-id="6208"></path><path d="M551.936 878.165333H285.354667v-74.666666c0-164.949333 136.405333-298.624 304.64-298.624 44.629333 0 86.954667 9.386667 125.098666 26.325333a38.826667 38.826667 0 0 0 29.013334 1.365333 37.845333 37.845333 0 0 0 21.546666-19.029333 36.693333 36.693333 0 0 0 1.664-28.373333 37.589333 37.589333 0 0 0-19.242666-21.333334l-0.213334-0.085333a378.24 378.24 0 0 0-16.426666-6.912 223.872 223.872 0 0 0 77.866666-112.981333 219.861333 219.861333 0 0 0-3.413333-136.32 224.426667 224.426667 0 0 0-83.370667-109.141334 231.637333 231.637333 0 0 0-132.48-41.514666c-47.530667 0-93.824 14.506667-132.522666 41.514666A224.426667 224.426667 0 0 0 374.186667 207.530667a219.818667 219.818667 0 0 0-3.413334 136.32 223.872 223.872 0 0 0 77.866667 112.981333c-140.288 55.04-239.36 189.525333-239.36 346.709333v112c0 20.608 17.024 37.333333 38.058667 37.333334h304.64a38.485333 38.485333 0 0 0 26.922666-10.922667 36.949333 36.949333 0 0 0 0-52.821333 38.442667 38.442667 0 0 0-26.88-10.922667zM437.76 280.874667c0-19.626667 3.925333-39.04 11.562667-57.173334 7.68-18.090667 18.901333-34.56 33.024-48.426666a152.576 152.576 0 0 1 49.408-32.341334 155.008 155.008 0 0 1 116.608 0c18.474667 7.466667 35.242667 18.474667 49.408 32.341334 14.122667 13.866667 25.344 30.336 33.024 48.469333 7.68 18.090667 11.562667 37.546667 11.562666 57.173333 0 39.552-16.042667 77.568-44.586666 105.557334a153.856 153.856 0 0 1-107.690667 43.733333 153.856 153.856 0 0 1-107.733333-43.733333 147.84 147.84 0 0 1-44.586667-105.6z" p-id="6209"></path><path d="M901.461333 765.781333a23.466667 23.466667 0 0 0 16.64-6.869333l19.882667-19.584a103.978667 103.978667 0 0 0 1.450667-151.082667 108.074667 108.074667 0 0 0-35.498667-23.082666 109.781333 109.781333 0 0 0-83.584 0.853333 107.946667 107.946667 0 0 0-34.986667 23.893333l-19.925333 19.498667a22.997333 22.997333 0 0 0-8.021333 16.597333 22.613333 22.613333 0 0 0 6.826666 17.066667 23.552 23.552 0 0 0 26.752 4.48 23.381333 23.381333 0 0 0 7.594667-5.717333l19.882667-19.541334a61.098667 61.098667 0 0 1 43.178666-17.536 62.208 62.208 0 0 1 43.178667 17.493334 59.776 59.776 0 0 1 17.92 42.325333 58.794667 58.794667 0 0 1-17.92 42.325333l-19.925333 19.541334a22.912 22.912 0 0 0-6.869334 16.213333 22.528 22.528 0 0 0 6.869334 16.213333 23.04 23.04 0 0 0 16.597333 6.912z m-199.082666 160.768c14.208 0 28.245333-2.730667 41.344-8.064a107.52 107.52 0 0 0 34.986666-22.997333l19.925334-19.541333a22.741333 22.741333 0 0 0-0.981334-31.573334 23.68 23.68 0 0 0-32.213333-0.853333l-19.925333 19.541333c-11.434667 11.221333-26.965333 17.536-43.178667 17.493334-16.213333 0-31.701333-6.272-43.136-17.493334a59.264 59.264 0 0 1-17.877333-42.325333c0-15.872 6.442667-31.104 17.92-42.325333l19.882666-19.498667a23.04 23.04 0 0 0 8.064-16.597333 22.613333 22.613333 0 0 0-6.912-17.066667 23.466667 23.466667 0 0 0-17.408-6.698667 23.850667 23.850667 0 0 0-16.896 7.936l-19.882666 19.498667a105.130667 105.130667 0 0 0-29.525334 54.186667c-4.138667 20.48-2.005333 41.728 6.186667 61.056 8.106667 19.328 21.973333 35.84 39.68 47.488 17.749333 11.605333 38.613333 17.834667 59.946667 17.834666z m0-82.773333a24.149333 24.149333 0 0 0 16.64-6.698667l159.232-156.16a22.997333 22.997333 0 0 0 6.954666-16.256 22.698667 22.698667 0 0 0-6.826666-16.341333 23.466667 23.466667 0 0 0-16.64-6.784 23.893333 23.893333 0 0 0-16.64 6.741333l-159.274667 156.16a22.869333 22.869333 0 0 0-5.162667 25.088 23.125333 23.125333 0 0 0 8.661334 10.368c3.84 2.56 8.405333 3.882667 13.056 3.84z" p-id="6210"></path></svg>