<?xml version="1.0" standalone="no"?><!DOCTYPE svg PUBLIC "-//W3C//DTD SVG 1.1//EN" "http://www.w3.org/Graphics/SVG/1.1/DTD/svg11.dtd"><svg t="1765614094302" class="icon" viewBox="0 0 1024 1024" version="1.1" xmlns="http://www.w3.org/2000/svg" p-id="29075" xmlns:xlink="http://www.w3.org/1999/xlink" width="16" height="16"><path d="M114.136 1023.936a63.992 63.992 0 0 1-56.76-67.767V655.855a63.096 63.096 0 0 1 56.76-67.767h795.675a63.096 63.096 0 0 1 56.76 67.767v300.314a63.096 63.096 0 0 1-56.76 67.767z m361.682-221.604a50.234 50.234 0 0 0 50.362 50.362 53.561 53.561 0 0 0 34.811-14.654 51.193 51.193 0 0 0 15.55-35.708 50.234 50.234 0 0 0-50.361-50.361 50.81 50.81 0 0 0-50.362 50.361z m-154.732 0a50.234 50.234 0 0 0 50.361 50.362 53.561 53.561 0 0 0 34.812-14.654 60.088 60.088 0 0 0 15.55-35.708 50.234 50.234 0 0 0-50.362-50.361 50.81 50.81 0 0 0-50.361 50.361z m-151.98 0a50.81 50.81 0 0 0 50.36 50.362 53.561 53.561 0 0 0 34.812-14.654 60.088 60.088 0 0 0 15.55-35.708 50.362 50.362 0 1 0-100.723 0z m276.508-315.927a65.912 65.912 0 0 1 65.911-63.992 63.992 63.992 0 1 1-65.911 63.992z m-161.196-30.14a49.21 49.21 0 0 1-30.204-43.003c0-119.025 115.186-214.245 256.352-214.245s257.119 97.012 257.119 215.14a53.113 53.113 0 0 1-57.593 47.61 63.992 63.992 0 0 1-41.083-13.758 46.074 46.074 0 0 1-17.405-34.811 129.967 129.967 0 0 0-139.183-117.17A129.392 129.392 0 0 0 373.24 413.263a47.738 47.738 0 0 1-30.204 43.002 68.727 68.727 0 0 1-29.692 6.848 64.44 64.44 0 0 1-28.925-6.848z m606.131-42.107a63.992 63.992 0 0 1-41.21-13.758 47.61 47.61 0 0 1-17.406-34.812 261.855 261.855 0 0 0-159.34-231.65 375.312 375.312 0 0 0-319.575 0 261.855 261.855 0 0 0-159.34 231.65 54.649 54.649 0 0 1-58.617 48.506 54.649 54.649 0 0 1-58.488-48.442A359.122 359.122 0 0 1 295.425 48.828a513.47 513.47 0 0 1 436.744 0A357.522 357.522 0 0 1 949.166 364.82a54.713 54.713 0 0 1-58.617 49.338z" p-id="29076"></path></svg>
