<?xml version="1.0" standalone="no"?><!DOCTYPE svg PUBLIC "-//W3C//DTD SVG 1.1//EN" "http://www.w3.org/Graphics/SVG/1.1/DTD/svg11.dtd"><svg t="1765614028666" class="icon" viewBox="0 0 1024 1024" version="1.1" xmlns="http://www.w3.org/2000/svg" p-id="28034" xmlns:xlink="http://www.w3.org/1999/xlink" width="16" height="16"><path d="M170.666667 42.666667a85.034667 85.034667 0 0 0-85.333334 85.333333v170.666667a85.034667 85.034667 0 0 0 85.333334 85.333333H42.666667v85.333333h512v-85.333333h-128a85.034667 85.034667 0 0 0 85.333333-85.333333V128a85.034667 85.034667 0 0 0-85.333333-85.333333H170.666667m0 85.333333h256v170.666667H170.666667V128M128 554.666667v298.666666h298.666667v-85.333333H213.333333V554.666667H128m469.333333 0a85.034667 85.034667 0 0 0-85.333333 85.333333v170.666667a85.034667 85.034667 0 0 0 85.333333 85.333333h-128v85.333333h512v-85.333333h-128a85.034667 85.034667 0 0 0 85.333334-85.333333v-170.666667a85.034667 85.034667 0 0 0-85.333334-85.333333H597.333333m0 85.333333h256v170.666667H597.333333v-170.666667z" p-id="28035"></path></svg>