<?xml version="1.0" standalone="no"?><!DOCTYPE svg PUBLIC "-//W3C//DTD SVG 1.1//EN" "http://www.w3.org/Graphics/SVG/1.1/DTD/svg11.dtd"><svg t="1746784823921" class="icon" viewBox="0 0 1183 1024" version="1.1" xmlns="http://www.w3.org/2000/svg" p-id="8078" xmlns:xlink="http://www.w3.org/1999/xlink" width="18.484375" height="16"><path d="M580.266667 955.733333v-147.911111a68.266667 68.266667 0 0 1 68.266666-68.266666h427.804445a34.133333 34.133333 0 0 0 34.133333-34.133334V113.777778h68.266667v591.644444a102.4 102.4 0 0 1-102.4 102.4H648.533333V955.733333H910.222222v68.266667H318.577778v-68.266667h261.688889z m175.445333-598.334577a125.155556 125.155556 0 1 1 48.514844 48.036977l-221.047466 232.698311-122.971022-100.625066L243.939556 807.822222H18.204444V113.777778A102.4 102.4 0 0 1 120.604444 11.377778h955.733334v68.266666h-955.733334A34.133333 34.133333 0 0 0 86.471111 113.777778v625.777778h124.700445l238.842311-298.575645 127.340089 104.174933 178.3808-187.756088zM864.711111 352.711111a56.888889 56.888889 0 1 0 0-113.777778 56.888889 56.888889 0 0 0 0 113.777778z"  p-id="8079"></path></svg>
