<?xml version="1.0" standalone="no"?><!DOCTYPE svg PUBLIC "-//W3C//DTD SVG 1.1//EN" "http://www.w3.org/Graphics/SVG/1.1/DTD/svg11.dtd"><svg t="1713166340303" class="icon" viewBox="0 0 1024 1024" version="1.1" xmlns="http://www.w3.org/2000/svg" p-id="23528" xmlns:xlink="http://www.w3.org/1999/xlink" width="16" height="16"><path d="M972.8 563.2H51.2A51.2 51.2 0 0 0 0 614.4v358.4A51.2 51.2 0 0 0 51.2 1024h921.6a51.2 51.2 0 0 0 51.2-51.2V614.4a51.2 51.2 0 0 0-51.2-51.2z m-768 358.4H102.4v-256h102.4z m153.6 0h-51.2v-256h51.2z m563.2 0H460.8v-256h460.8z m-307.2-102.4a51.2 51.2 0 1 0-51.2-51.2 51.2 51.2 0 0 0 51.2 51.2z m153.6 0a51.2 51.2 0 1 0-51.2-51.2 51.2 51.2 0 0 0 51.2 51.2zM972.8 0H51.2A51.2 51.2 0 0 0 0 51.2v358.4a51.2 51.2 0 0 0 51.2 51.2h921.6a51.2 51.2 0 0 0 51.2-51.2V51.2A51.2 51.2 0 0 0 972.8 0z m-768 358.4H102.4v-256h102.4z m153.6 0h-51.2v-256h51.2z m563.2 0H460.8v-256h460.8z m-307.2-51.2a51.2 51.2 0 1 0-51.2-51.2 51.2 51.2 0 0 0 51.2 51.2z m153.6 0a51.2 51.2 0 1 0-51.2-51.2 51.2 51.2 0 0 0 51.2 51.2z" p-id="23529"></path></svg>