<?xml version="1.0" standalone="no"?><!DOCTYPE svg PUBLIC "-//W3C//DTD SVG 1.1//EN" "http://www.w3.org/Graphics/SVG/1.1/DTD/svg11.dtd"><svg t="1765613595206" class="icon" viewBox="0 0 1024 1024" version="1.1" xmlns="http://www.w3.org/2000/svg" p-id="14716" xmlns:xlink="http://www.w3.org/1999/xlink" width="16" height="16"><path d="M964.141 786.712a60.866 60.866 0 0 0 28.075 21.28 51.77 51.77 0 0 1 7.019 4.661 25.436 25.436 0 0 1 8.703 13.476 50.535 50.535 0 0 1-0.562 16.845 101.855 101.855 0 0 1-15.834 38.518 35.992 35.992 0 0 1-12.802 11.736 28.075 28.075 0 0 1-12.24 3.425 34.532 34.532 0 0 1-11.792-2.359 122.238 122.238 0 0 0-14.543-3.2 68.166 68.166 0 0 0-17.8-0.562 86.639 86.639 0 0 0-18.192 3.706 35.43 35.43 0 0 0-15.44 9.995 57.441 57.441 0 0 0-16.34 33.24 65.527 65.527 0 0 0 5.278 35.6 22.067 22.067 0 0 1-1.797 23.358 43.516 43.516 0 0 1-11.23 9.657 103.708 103.708 0 0 1-53.174 17.8 14.88 14.88 0 0 1-9.994-4.1 22.067 22.067 0 0 1-6.345-8.815h-0.618a72.152 72.152 0 0 0-21.786-31.163 55.363 55.363 0 0 0-71.871 0 70.86 70.86 0 0 0-22.46 30.602 19.99 19.99 0 0 1-8.816 10.163 26.278 26.278 0 0 1-12.802 3.257 67.829 67.829 0 0 1-18.473-2.92 172.21 172.21 0 0 1-20.438-7.244 97.588 97.588 0 0 1-18.474-10.275 50.872 50.872 0 0 1-12.24-11.735 17.8 17.8 0 0 1-3.2-9.658 35.43 35.43 0 0 1 4.379-15.441 58.34 58.34 0 0 0 4.997-30.602 53.005 53.005 0 0 0-14.88-31.78 38.013 38.013 0 0 0-19.989-11.23 80.855 80.855 0 0 0-22.066-2.022 98.15 98.15 0 0 0-25.155 4.66 23.807 23.807 0 0 1-16.34-1.178 25.604 25.604 0 0 1-11.904-10.725 119.767 119.767 0 0 1-16.845-39.698 48.906 48.906 0 0 1-1.179-17.799 18.249 18.249 0 0 1 11.736-16.34 82.708 82.708 0 0 0 31.556-23.077 53.23 53.23 0 0 0 14.093-35.88 50.872 50.872 0 0 0-14.093-35.598 86.527 86.527 0 0 0-31.556-22.18 15.722 15.722 0 0 1-8.704-8.478 29.366 29.366 0 0 1-3.65-13.7 70.917 70.917 0 0 1 2.471-16.845 117.914 117.914 0 0 1 14.88-34.196 35.43 35.43 0 0 1 10.837-10.893 13.532 13.532 0 0 1 9.096-2.246 50.535 50.535 0 0 1 9.545 2.359 70.86 70.86 0 0 0 36.554 4.38 59.462 59.462 0 0 0 33.69-16.845 41.438 41.438 0 0 0 10.275-17.238 93.49 93.49 0 0 0 4.099-38.182q-0.562-5.615-1.46-11.735a63.168 63.168 0 0 1-2.078-8.198 12.746 12.746 0 0 1 0.899-8.198 33.69 33.69 0 0 1 12.521-14.262 97.42 97.42 0 0 1 19.54-10.275 131.895 131.895 0 0 1 20.439-6.065 82.877 82.877 0 0 1 15.834-2.077 15.273 15.273 0 0 1 12.016 4.997 28.917 28.917 0 0 1 6.064 10.163 69.85 69.85 0 0 0 21.056 28.075 52.724 52.724 0 0 0 34.532 11.904 61.765 61.765 0 0 0 58.564-40.54 38.294 38.294 0 0 1 7.243-9.658 15.048 15.048 0 0 1 10.276-4.997 76.307 76.307 0 0 1 17.8 2.358 120.553 120.553 0 0 1 19.09 6.345 74.51 74.51 0 0 1 17.238 10.556 56.15 56.15 0 0 1 12.465 14.094 13.364 13.364 0 0 1 1.797 10.163 35.599 35.599 0 0 1-2.358 7.917 61.765 61.765 0 0 0-4.717 35.599 58.059 58.059 0 0 0 16.845 32.735 53.061 53.061 0 0 0 34.532 15.44 75.858 75.858 0 0 0 37.901-6.737 17.968 17.968 0 0 1 11.23-2.358 17.743 17.743 0 0 1 11.23 5.278 68.166 68.166 0 0 1 15.441 24.818 136.893 136.893 0 0 1 9.096 33.69 20.27 20.27 0 0 1-3.2 15.44 21.842 21.842 0 0 1-9.097 7.244 68.615 68.615 0 0 0-30.882 22.46 56.767 56.767 0 0 0-12.914 36.553 57.722 57.722 0 0 0 10.837 34.7zM826.911 661.61A127.572 127.572 0 0 0 619.72 701.87a126.786 126.786 0 0 0 0 98.71 130.829 130.829 0 0 0 27.288 40.597 127.123 127.123 0 0 0 207.08-40.596 123.08 123.08 0 0 0 9.995-49.356 127.74 127.74 0 0 0-37.06-89.839z" p-id="14717"></path><path d="M382.32 1010.693H126.276a112.3 112.3 0 0 1-112.3-112.3V112.3A112.3 112.3 0 0 1 126.278 0h617.645a112.3 112.3 0 0 1 112.3 112.3v274.683a377.774 377.774 0 0 0-148.628-30.265 381.817 381.817 0 0 0-204.216 59.407H169.23a56.15 56.15 0 0 0-56.15 56.15v6.625a56.15 56.15 0 0 0 56.15 56.15H382.6a423.48 423.48 0 0 0-54.634 118.924H169.231a56.15 56.15 0 0 0-56.15 56.15v6.57a56.15 56.15 0 0 0 56.15 56.149H311.29a428.14 428.14 0 0 0 70.973 237.85zM169.23 178.33a56.15 56.15 0 0 0-56.15 56.15v6.625a56.15 56.15 0 0 0 56.15 56.15h531.737a56.15 56.15 0 0 0 56.15-56.15v-6.625a56.15 56.15 0 0 0-56.15-56.15z" p-id="14718"></path></svg>