<?xml version="1.0" standalone="no"?><!DOCTYPE svg PUBLIC "-//W3C//DTD SVG 1.1//EN" "http://www.w3.org/Graphics/SVG/1.1/DTD/svg11.dtd"><svg t="1765613539403" class="icon" viewBox="0 0 1024 1024" version="1.1" xmlns="http://www.w3.org/2000/svg" p-id="13743" xmlns:xlink="http://www.w3.org/1999/xlink" width="16" height="16"><path d="M978.0992 728.4992c0-157.5424-127.70816-285.25056-285.25568-285.25056-157.54752 0-285.2608 127.71328-285.2608 285.25056 0 157.53728 127.7184 285.25568 285.2608 285.25568 157.53728 0 285.25568-127.7184 285.25568-285.25568z m-249.60512 178.28352h-71.31136v-249.6h71.31136v249.6z m0-285.25056h-71.31136v-71.31648h71.31136v71.31648z" fill="" p-id="13744"></path><path d="M193.64352 407.58784h570.51136V336.27648H193.64352v71.31136z m641.82272-320.91136h-142.6176V15.36h-71.3216v71.31648H336.27136V15.36H264.96v71.31648H122.33216c-39.33696 0.11776-71.19872 31.9744-71.31648 71.31136v713.1392c0.11776 39.33696 31.97952 71.20384 71.31648 71.31136h331.3408a321.66912 321.66912 0 0 1-48.31744-71.31136H122.45504l-0.12288-0.12288V229.30432h713.13408v211.712a321.6896 321.6896 0 0 1 71.3216 48.36352V157.98784c-0.12288-39.33696-31.98464-71.1936-71.3216-71.31136zM193.64352 550.21568H425.984a322.7136 322.7136 0 0 1 65.17248-71.31136H193.64352v71.31136z" fill="" p-id="13745"></path></svg>