<?xml version="1.0" standalone="no"?><!DOCTYPE svg PUBLIC "-//W3C//DTD SVG 1.1//EN" "http://www.w3.org/Graphics/SVG/1.1/DTD/svg11.dtd"><svg t="1716274536068" class="icon" viewBox="0 0 1024 1024" version="1.1" xmlns="http://www.w3.org/2000/svg" p-id="4040" xmlns:xlink="http://www.w3.org/1999/xlink" width="16" height="16"><path d="M914.39 836.35h-2.64V223.69c0-14.87-7.39-28.77-19.72-37.07-12.36-8.34-28.01-9.98-41.77-4.37L661.5 258.72l0.45-34.47a44.741 44.741 0 0 0-19.23-37.31c-12.2-8.47-27.85-10.33-41.69-4.93L399.3 260.47l0.55-117.32c0.05-11.9-4.63-23.34-13.02-31.76s-19.8-13.16-31.69-13.16h-0.01l-198.16 0.04c-24.69 0-44.7 20.02-44.7 44.71v693.37h-2.64c-24.69 0-44.71 20.02-44.71 44.71s20.02 44.71 44.71 44.71H914.4c24.69 0 44.71-20.02 44.71-44.71s-20.03-44.71-44.72-44.71z m-712.72 0V187.69l108.53-0.04-0.64 138.08a44.699 44.699 0 0 0 19.39 37.07 44.753 44.753 0 0 0 41.53 4.82l201.18-78.24-0.46 35.5a44.742 44.742 0 0 0 19.48 37.48c12.39 8.47 28.16 10.17 42.01 4.52l189.62-76.82v546.3H201.67z"  p-id="4041"></path><path d="M441.67 450.71h-150.9c-24.69 0-44.71 20.02-44.71 44.71v150.9c0 24.69 20.02 44.71 44.71 44.71h150.9c24.69 0 44.71-20.02 44.71-44.71v-150.9c0-24.69-20.02-44.71-44.71-44.71z m-44.71 150.9h-61.48v-61.48h61.48v61.48zM731.25 450.71h-150.9c-24.69 0-44.71 20.02-44.71 44.71v150.9c0 24.69 20.02 44.71 44.71 44.71h150.9c24.69 0 44.71-20.02 44.71-44.71v-150.9c0-24.69-20.02-44.71-44.71-44.71z m-44.71 150.9h-61.48v-61.48h61.48v61.48z"  p-id="4042"></path></svg>
