<?xml version="1.0" standalone="no"?><!DOCTYPE svg PUBLIC "-//W3C//DTD SVG 1.1//EN" "http://www.w3.org/Graphics/SVG/1.1/DTD/svg11.dtd"><svg t="1753858467393" class="icon" viewBox="0 0 1024 1024" version="1.1" xmlns="http://www.w3.org/2000/svg" p-id="17189" xmlns:xlink="http://www.w3.org/1999/xlink" width="16" height="16"><path d="M1000.106667 348.16l-98.986667-163.84c-10.24-17.066667-30.72-23.893333-51.2-17.066667l-112.64 44.373334c-23.893333-17.066667-44.373333-30.72-71.68-40.96L648.533333 54.613333c-3.413333-20.48-20.48-34.133333-40.96-34.133333H409.6c-20.48 0-37.546667 13.653333-40.96 34.133333L351.573333 170.666667c-23.893333 10.24-47.786667 23.893333-68.266666 40.96L170.666667 163.84c-20.48-6.826667-40.96 0-51.2 17.066667L20.48 344.746667c-10.24 17.066667-6.826667 40.96 10.24 54.613333l95.573333 71.68c0 13.653333-3.413333 27.306667-3.413333 37.546667s0 23.893333 3.413333 37.546666L34.133333 624.64c-17.066667 13.653333-20.48 34.133333-10.24 51.2l98.986667 163.84c10.24 17.066667 30.72 23.893333 51.2 17.066667l112.64-44.373334c23.893333 17.066667 44.373333 30.72 71.68 40.96l17.066667 116.053334c3.413333 20.48 20.48 34.133333 40.96 34.133333H580.266667c10.24 0 17.066667-6.826667 17.066666-17.066667 0-6.826667-3.413333-10.24-6.826666-13.653333-40.96-47.786667-61.44-109.226667-61.44-174.08 0-40.96 10.24-81.92 27.306666-119.466667 3.413333-6.826667 3.413333-13.653333-3.413333-17.066666-3.413333-6.826667-10.24-6.826667-17.066667-6.826667-112.64 27.306667-211.626667-58.026667-211.626666-163.84 0-95.573333 75.093333-170.666667 170.666666-170.666667s170.666667 75.093333 170.666667 170.666667c0 13.653333-3.413333 27.306667-6.826667 40.96 0 6.826667 0 13.653333 6.826667 17.066667 3.413333 3.413333 13.653333 3.413333 17.066667 3.413333 61.44-27.306667 126.293333-34.133333 191.146666-17.066667 3.413333 0 10.24 0 13.653334-3.413333 3.413333-3.413333 6.826667-10.24 6.826666-13.653333v-10.24c0-13.653333 0-27.306667-3.413333-37.546667l95.573333-71.68c20.48-10.24 23.893333-34.133333 13.653334-51.2z" fill="" p-id="17190"></path><path d="M785.066667 563.2c-122.88 0-221.866667 98.986667-221.866667 221.866667s98.986667 221.866667 221.866667 221.866666 221.866667-98.986667 221.866666-221.866666-98.986667-221.866667-221.866666-221.866667z m-17.066667 119.466667c0-10.24 6.826667-17.066667 17.066667-17.066667s17.066667 6.826667 17.066666 17.066667v170.666666c0 10.24-6.826667 17.066667-17.066666 17.066667s-17.066667-6.826667-17.066667-17.066667v-170.666666z m17.066667 256c-10.24 0-17.066667-6.826667-17.066667-17.066667s6.826667-17.066667 17.066667-17.066667 17.066667 6.826667 17.066666 17.066667-6.826667 17.066667-17.066666 17.066667z" fill="" p-id="17191"></path></svg>