<?xml version="1.0" standalone="no"?><!DOCTYPE svg PUBLIC "-//W3C//DTD SVG 1.1//EN" "http://www.w3.org/Graphics/SVG/1.1/DTD/svg11.dtd"><svg t="1753858743813" class="icon" viewBox="0 0 1024 1024" version="1.1" xmlns="http://www.w3.org/2000/svg" p-id="21017" xmlns:xlink="http://www.w3.org/1999/xlink" width="16" height="16"><path d="M908.8 832L710.4 486.4c-6.4-6.4-12.8-6.4-19.2-6.4-6.4 0-12.8 0-19.2 12.8L473.6 838.4v12.8c0 12.8 12.8 25.6 25.6 25.6h390.4c12.8 0 25.6-12.8 25.6-25.6s-6.4-19.2-6.4-19.2z m-211.2-12.8c-12.8 0-25.6-12.8-25.6-25.6s12.8-25.6 25.6-25.6 25.6 12.8 25.6 25.6c-6.4 19.2-12.8 25.6-25.6 25.6z m19.2-121.6c0 12.8-12.8 25.6-25.6 25.6s-25.6-12.8-25.6-25.6v-70.4c0-12.8 12.8-25.6 25.6-25.6s25.6 12.8 25.6 25.6v70.4z m0 0M678.4 320h-448c-6.4 0-12.8 0-19.2-6.4-6.4 0-6.4-6.4-6.4-12.8v-19.2c0-6.4 0-6.4 6.4-12.8 6.4 0 12.8-6.4 19.2-6.4h448c12.8 0 25.6 6.4 25.6 19.2v19.2c0 6.4 0 6.4-6.4 12.8-6.4 0-12.8 6.4-19.2 6.4z m-224 134.4c0 6.4 0 6.4-6.4 12.8 0 6.4-6.4 6.4-6.4 6.4h-224c-6.4 0-6.4 0-6.4-6.4s-6.4-6.4-6.4-12.8v-19.2c0-6.4 0-6.4 6.4-12.8 0-6.4 6.4-6.4 6.4-6.4h224c6.4 0 12.8 6.4 12.8 19.2v19.2zM326.4 608v12.8c0 6.4 0 6.4-6.4 6.4H211.2s-6.4 0-6.4-6.4V576c0-6.4 0-6.4 6.4-6.4H320c6.4 0 6.4 6.4 6.4 19.2V608z" p-id="21018"></path><path d="M390.4 851.2H147.2c-19.2 0-38.4-12.8-38.4-38.4v-672c0-19.2 19.2-38.4 38.4-38.4H256v38.4c0 19.2 19.2 38.4 38.4 38.4h307.2c19.2 0 38.4-12.8 38.4-38.4v-32h89.6c6.4 0 19.2 6.4 25.6 12.8 6.4 6.4 12.8 12.8 12.8 25.6V416c25.6 6.4 51.2 19.2 70.4 32V108.8c0-38.4-32-70.4-70.4-70.4H640C633.6 19.2 620.8 0 601.6 0H294.4C275.2 0 256 19.2 256 38.4H108.8c-38.4 0-70.4 32-70.4 70.4v742.4c0 38.4 32 70.4 70.4 70.4h320c-12.8-19.2-25.6-44.8-38.4-70.4z" p-id="21019"></path><path d="M678.4 1024c-166.4 0-307.2-134.4-307.2-307.2s134.4-307.2 307.2-307.2c166.4 0 307.2 134.4 307.2 307.2S844.8 1024 678.4 1024z m0-588.8c-153.6 0-281.6 128-281.6 281.6s128 281.6 281.6 281.6S960 870.4 960 716.8 832 435.2 678.4 435.2z" p-id="21020"></path></svg>