<?xml version="1.0" standalone="no"?><!DOCTYPE svg PUBLIC "-//W3C//DTD SVG 1.1//EN" "http://www.w3.org/Graphics/SVG/1.1/DTD/svg11.dtd"><svg t="1733121310636" class="icon" viewBox="0 0 1024 1024" version="1.1" xmlns="http://www.w3.org/2000/svg" p-id="16099" xmlns:xlink="http://www.w3.org/1999/xlink" width="200" height="200"><path d="M866 456 866 303.2 663.7 100.9 335 100.9c-41.9 0-75.9 34-75.9 75.9l-25.3 0c-41.9 0-75.9 34-75.9 75.9l0 203.4c-35.9 6-63.2 37.2-63.2 74.8l0 303.4c0 41.9 34 101.1 75.9 101.1l682.8 0c41.9 0 75.9-34 75.9-75.9L929.3 530.8C929.2 493.2 901.9 462 866 456zM259.1 454.9l-63.2 0L195.9 265.3c0-27.9 22.6-50.6 50.6-50.6l12.6 0L259.1 454.9zM828.1 454.9 672 454.9c-17.1 72.5-82.2 126.4-160 126.4s-142.8-53.9-160-126.4l-55 0L297 189.4c0-27.9 22.6-50.6 50.6-50.6l316.1 0 0 88.5c0 41.9 34 75.9 75.9 75.9l88.5 0L828.1 454.9z" p-id="16100"></path></svg>