<?xml version="1.0" standalone="no"?><!DOCTYPE svg PUBLIC "-//W3C//DTD SVG 1.1//EN" "http://www.w3.org/Graphics/SVG/1.1/DTD/svg11.dtd"><svg t="1717494103042" class="icon" viewBox="0 0 1024 1024" version="1.1" xmlns="http://www.w3.org/2000/svg" p-id="9202" xmlns:xlink="http://www.w3.org/1999/xlink" width="16" height="16"><path d="M844.5 584c-4.6-2.4-9.8-3.7-15.3-3.7H511.4c-31.5 0-57.1-25.6-57.1-57.1s25.6-57.1 57.1-57.1h205.4c14.8 49.5 60.7 85.6 114.9 85.6 66.1 0 119.9-53.8 119.9-119.9s-53.8-119.9-119.9-119.9c-54.8 0-101.1 37-115.3 87.3h-205c-68.4 0-124 55.6-124 124s55.6 124 124 124h303c31.5 0 57.1 25.6 57.1 57.1s-25.6 57.1-57.1 57.1h-212c-14.8-49.5-60.7-85.6-114.9-85.6-66.1 0-119.9 53.8-119.9 119.9s53.8 119.9 119.9 119.9c54.8 0 101.1-37 115.3-87.3h211.5c68.4 0 124-55.6 124-124 0.1-58-39.9-106.8-93.8-120.3z m-12.8-205.2c29.2 0 53 23.8 53 53s-23.8 53-53 53-53-23.8-53-53 23.8-53 53-53zM487.5 848.7c-29.2 0-53-23.8-53-53s23.8-53 53-53 53 23.8 53 53-23.7 53-53 53z"  p-id="9203"></path><path d="M250.4 425.5h52.3c6.2 0 11.9 1.7 16.9 4.6 21.8-44.6 58.7-80.6 104-101.2H250.4c-18.5 0-33.4-15-33.4-33.4 0-18.5 15-33.4 33.4-33.4h282c18.5 0 33.4 15 33.4 33.4 0 5.2-1.2 10.1-3.4 14.5h99.3c13.1-18.1 28.9-34 46.8-47 1.2-3.4 1.8-7 1.8-10.8 0-79.3-64.5-143.8-143.8-143.8H216.2c-79.3 0-143.8 64.5-143.8 143.8v413.5c0 79.3 64.5 143.8 143.8 143.8h34.2c11.8 0 22.1-6.1 28-15.2 0.4-56.7 23.5-108.2 60.6-145.6-2.4-3.3-4.7-6.7-7-10.2-5.7 10.4-16.7 17.4-29.4 17.4h-52.3c-18.5 0-33.4-15-33.4-33.4 0-18.5 15-33.4 33.4-33.4h52.3c2.1 0 4.1 0.2 6 0.6-6.8-20.9-10.6-43.2-10.6-66.3 0-10.5 0.8-20.8 2.2-30.8h-50c-18.5 0-33.4-15-33.4-33.4 0.2-18.7 15.2-33.7 33.6-33.7z" p-id="9204"></path></svg>
