<?xml version="1.0" standalone="no"?><!DOCTYPE svg PUBLIC "-//W3C//DTD SVG 1.1//EN" "http://www.w3.org/Graphics/SVG/1.1/DTD/svg11.dtd"><svg t="1719302798091" class="icon" viewBox="0 0 1365 1024" version="1.1" xmlns="http://www.w3.org/2000/svg" p-id="17383" xmlns:xlink="http://www.w3.org/1999/xlink" width="21.328125" height="16"><path d="M379.259259 0m75.851852 0l455.111111 0q75.851852 0 75.851852 75.851852l0 113.777778q0 75.851852-75.851852 75.851851l-455.111111 0q-75.851852 0-75.851852-75.851851l0-113.777778q0-75.851852 75.851852-75.851852Z"  p-id="17384"></path><path d="M1061.925926 417.185185h101.148444c55.826963 0 101.110519-50.934519 101.110519-113.777778s-45.283556-113.777778-101.110519-113.777777H1061.925926V75.851852h101.148444C1274.766222 75.851852 1365.333333 177.720889 1365.333333 303.407407s-90.567111 227.555556-202.258963 227.555556H1061.925926v-113.777778z m0 0h101.148444c55.826963 0 101.110519-50.934519 101.110519-113.777778s-45.283556-113.777778-101.110519-113.777777H1061.925926V75.851852h101.148444C1274.766222 75.851852 1365.333333 177.720889 1365.333333 303.407407s-90.567111 227.555556-202.258963 227.555556H1061.925926v-113.777778zM303.407407 796.444444H202.258963c-55.826963 0-101.110519-50.934519-101.110519-113.777777s45.283556-113.777778 101.110519-113.777778H303.407407v-113.777778H202.258963C90.567111 455.111111 0 556.980148 0 682.666667s90.567111 227.555556 202.258963 227.555555H303.407407v-113.777778z m0 0H202.258963c-55.826963 0-101.110519-50.934519-101.110519-113.777777s45.283556-113.777778 101.110519-113.777778H303.407407v-113.777778H202.258963C90.567111 455.111111 0 556.980148 0 682.666667s90.567111 227.555556 202.258963 227.555555H303.407407v-113.777778z"  p-id="17385"></path><path d="M379.259259 379.259259m75.851852 0l455.111111 0q75.851852 0 75.851852 75.851852l0 113.777778q0 75.851852-75.851852 75.851852l-455.111111 0q-75.851852 0-75.851852-75.851852l0-113.777778q0-75.851852 75.851852-75.851852Z"  p-id="17386"></path><path d="M379.259259 758.518519m75.851852 0l455.111111 0q75.851852 0 75.851852 75.851851l0 113.777778q0 75.851852-75.851852 75.851852l-455.111111 0q-75.851852 0-75.851852-75.851852l0-113.777778q0-75.851852 75.851852-75.851851Z"  p-id="17387"></path></svg>
