<?xml version="1.0" standalone="no"?><!DOCTYPE svg PUBLIC "-//W3C//DTD SVG 1.1//EN" "http://www.w3.org/Graphics/SVG/1.1/DTD/svg11.dtd"><svg t="1717493875538" class="icon" viewBox="0 0 1024 1024" version="1.1" xmlns="http://www.w3.org/2000/svg" p-id="3694" xmlns:xlink="http://www.w3.org/1999/xlink" width="16" height="16"><path d="M224.12 541.89h431.033c17.304 0 31.462-14.159 31.462-31.463s-14.158-31.462-31.462-31.462H224.121c-84.948 0-152.592-69.217-152.592-152.592 0-84.948 69.217-152.592 152.592-152.592h511.26c11.012 67.644 69.217 119.557 140.007 119.557 77.083 0 141.58-62.925 141.58-141.58s-62.924-141.58-141.58-141.58c-64.497 0-117.983 42.474-135.287 100.679H224.12c-119.556 0-215.516 97.533-215.516 215.516 0 119.556 97.533 215.516 215.516 215.516zM875.389 73.101c42.474 0 78.656 34.609 78.656 78.656s-34.609 78.655-78.656 78.655-78.655-34.608-78.655-78.655 34.608-78.656 78.655-78.656zM461.66 847.072H290.192c-11.012-66.07-69.217-116.41-140.007-116.41-78.656 0-141.58 62.925-141.58 141.58s62.924 141.58 141.58 141.58c66.07 0 119.556-44.047 136.86-103.825h176.189c17.304 0 29.889-14.158 29.889-31.462s-14.158-31.463-31.463-31.463zM150.185 950.898c-44.047 0-78.656-34.609-78.656-78.656s34.609-78.655 78.656-78.655 78.655 36.181 78.655 78.655c0 44.047-34.608 78.656-78.655 78.656zM982.36 683.469c-17.304-1.573-33.035 11.012-34.609 28.316-6.292 48.766-34.608 92.813-77.082 116.41-15.731 7.866-20.45 26.743-12.585 42.474 4.72 9.439 15.731 15.731 26.743 15.731 4.72 0 11.012-1.573 17.304-4.72 61.352-33.035 100.68-94.386 108.545-163.603 1.573-17.304-11.012-33.035-28.316-34.608z m9.438-179.335l-108.544-72.363c-9.439-6.292-22.024-9.438-33.035-6.292-12.585 3.146-22.024 9.439-28.316 18.877L549.755 837.634c-4.72 9.438-7.866 18.877-6.293 29.889l12.585 105.398c1.573 14.158 9.439 25.17 20.45 33.035 7.866 4.72 15.732 6.293 23.597 6.293 4.72 0 11.012 0 15.731-1.573l94.387-34.609c9.438-3.146 17.304-9.438 22.023-17.304l272.148-393.277c14.158-20.45 7.866-47.194-12.585-61.352zM683.47 916.29l-67.644 25.17-7.865-73.936 257.99-371.254 75.509 47.193-257.99 372.827z" p-id="3695"></path></svg>
