<?xml version="1.0" standalone="no"?><!DOCTYPE svg PUBLIC "-//W3C//DTD SVG 1.1//EN" "http://www.w3.org/Graphics/SVG/1.1/DTD/svg11.dtd"><svg t="1717494330775" class="icon" viewBox="0 0 1024 1024" version="1.1" xmlns="http://www.w3.org/2000/svg" p-id="10201" xmlns:xlink="http://www.w3.org/1999/xlink" width="16" height="16"><path d="M406.891719 554.697897H312.701508a127.918802 127.918802 0 1 1 0-85.345826h94.190211l147.806178-255.987507h135.264139a128.068706 128.068706 0 1 1 0 85.345825h-86.045382l-123.121846 213.264627 123.171815 213.364563h85.995413a128.018738 128.018738 0 1 1 0 85.345826h-135.264139z m403.793686 170.691651a42.672913 42.672913 0 1 0 42.672912 42.672912 42.672913 42.672913 0 0 0-42.672912-42.722881zM192.028107 469.352071a42.672913 42.672913 0 1 0 42.672913 42.672913 42.672913 42.672913 0 0 0-42.672913-42.672913zM810.685405 213.364564a42.672913 42.672913 0 1 0 42.672912 42.672912 42.672913 42.672913 0 0 0-42.672912-42.672912z"  p-id="10202"></path></svg>
