<?xml version="1.0" standalone="no"?><!DOCTYPE svg PUBLIC "-//W3C//DTD SVG 1.1//EN" "http://www.w3.org/Graphics/SVG/1.1/DTD/svg11.dtd"><svg t="1728271248301" class="icon" viewBox="0 0 1024 1024" version="1.1" xmlns="http://www.w3.org/2000/svg" p-id="11012" xmlns:xlink="http://www.w3.org/1999/xlink" width="16" height="16"><path d="M592 451.2c0-35.2 22.4-65.6 54.4-78.4-8-28.8-19.2-57.6-33.6-83.2-30.4 14.4-68.8 8-94.4-17.6-25.6-25.6-30.4-62.4-17.6-94.4-25.6-14.4-54.4-27.2-83.2-33.6-12.8 32-43.2 54.4-78.4 54.4S272 176 260.8 144c-28.8 8-57.6 19.2-83.2 33.6 14.4 30.4 8 68.8-17.6 94.4s-62.4 32-94.4 17.6c-16 25.6-27.2 54.4-33.6 83.2 32 12.8 54.4 43.2 54.4 78.4S64 516.8 32 529.6c8 28.8 19.2 57.6 33.6 83.2 30.4-14.4 68.8-8 94.4 17.6 25.6 25.6 30.4 62.4 17.6 94.4 25.6 16 54.4 27.2 83.2 33.6 12.8-32 43.2-54.4 78.4-54.4s65.6 22.4 78.4 54.4c28.8-8 57.6-19.2 83.2-33.6-14.4-30.4-8-68.8 17.6-94.4 25.6-25.6 62.4-30.4 94.4-17.6 16-25.6 27.2-54.4 33.6-83.2-32-12.8-54.4-41.6-54.4-78.4z m-252.8 84.8c-46.4 0-84.8-38.4-84.8-84.8s38.4-84.8 84.8-84.8 84.8 38.4 84.8 84.8-38.4 84.8-84.8 84.8z m345.6-356.8H992V256H684.8v-76.8z m0 312H992v76.8H684.8v-76.8zM187.2 801.6H992V880H187.2v-78.4z"  p-id="11013"></path></svg>
