<?xml version="1.0" standalone="no"?><!DOCTYPE svg PUBLIC "-//W3C//DTD SVG 1.1//EN" "http://www.w3.org/Graphics/SVG/1.1/DTD/svg11.dtd"><svg t="1733739802802" class="icon" viewBox="0 0 1043 1024" version="1.1" xmlns="http://www.w3.org/2000/svg" p-id="42750" xmlns:xlink="http://www.w3.org/1999/xlink" width="203.7109375" height="200"><path d="M387.55 86.49a114.31 114.31 0 0 0-221.704 0L0.832 86.747v56.078l164.918-0.26a114.31 114.31 0 0 0 221.705 0h654.001V86.49z m-110.858 86.434a58.423 58.423 0 0 1 0-116.737 58.423 58.423 0 0 1 0 116.737z m404.393 229.178a114.555 114.555 0 0 0-110.805 86.435H0v56.077h570.225a114.296 114.296 0 0 0 221.664 0h248.626v-56.077H791.889a114.555 114.555 0 0 0-110.804-86.435z m0 172.815a58.314 58.314 0 0 1-58.314-57.373l-0.096-0.941 0.096-0.941a58.369 58.369 0 1 1 58.314 59.268z m114.555-58.314c0 2.727-0.246 5.386-0.45 8.018 0.15-2.727 0.354-5.332 0.354-8.018s-0.204-5.387-0.354-8.183a73.302 73.302 0 0 1 0.436 8.169zM119.028 794.876a114.555 114.555 0 1 0 110.86 142.512h813.736v-56.077H229.888a114.637 114.637 0 0 0-110.86-86.435z m0 172.856a58.464 58.464 0 0 1 0-116.833 58.464 58.464 0 0 1 0 116.833z" p-id="42751"></path></svg>