<?xml version="1.0" standalone="no"?><!DOCTYPE svg PUBLIC "-//W3C//DTD SVG 1.1//EN" "http://www.w3.org/Graphics/SVG/1.1/DTD/svg11.dtd"><svg t="1719476799555" class="icon" viewBox="0 0 1042 1024" version="1.1" xmlns="http://www.w3.org/2000/svg" p-id="23620" xmlns:xlink="http://www.w3.org/1999/xlink" width="16.28125" height="16"><path d="M609.244178 860.475873l-265.201094-519.77312a188.811966 188.811966 0 0 0 35.858505-59.919912h271.742059l9.052228 9.11063c78.783589 79.718012 145.302868 129.008856 187.293528 128.483243 54.254969-0.350409 115.926926-31.419993 170.824311-105.706668l0.75922-1.051227a30.952781 30.952781 0 0 0-8.234608-42.983485 33.230439 33.230439 0 0 0-45.436347 7.241783c-44.034711 59.452701-79.542808 79.075596-118.321387 79.309202-23.068582 0-68.738535-38.83698-130.819301-100.21693V177.996246c68.446528-75.921916 119.197409-115.226108 131.228112-114.700495 37.902557 1.518438 68.388126 7.53379 119.606219 65.409651a33.347242 33.347242 0 0 0 45.96196 3.445687 30.835978 30.835978 0 0 0 3.56249-44.501923c-61.847161-70.081769-122.643096-85.616561-169.364275-87.602211-42.516273-1.752044-99.282506 45.494748-188.461557 145.478072l-7.884199 8.935425H379.901589A195.352931 195.352931 0 0 0 195.469734 28.196465C87.602211 28.196465 0 112.995406 0 217.650847S87.602211 407.105229 195.469734 407.105229a203.821145 203.821145 0 0 0 35.741702-3.153679l227.765749 456.524323H0v163.524127h1042.641517v-163.524127zM195.469734 343.973236c-72.009018 0-130.293689-56.591028-130.293689-126.322389s58.401474-126.263987 130.293689-126.263987 130.35209 56.532627 130.35209 126.263987-58.343073 126.322388-130.35209 126.322389z" p-id="23621"></path></svg>