<?xml version="1.0" standalone="no"?><!DOCTYPE svg PUBLIC "-//W3C//DTD SVG 1.1//EN" "http://www.w3.org/Graphics/SVG/1.1/DTD/svg11.dtd"><svg t="1733739080287" class="icon" viewBox="0 0 1024 1024" version="1.1" xmlns="http://www.w3.org/2000/svg" p-id="10179" xmlns:xlink="http://www.w3.org/1999/xlink" width="200" height="200"><path d="M876.1 98H149.9C121.2 98 98 121.2 98 149.9v726.2c0 28.7 23.2 51.9 51.9 51.9h726.2c28.7 0 51.9-23.2 51.9-51.9V149.9c0-28.7-23.2-51.9-51.9-51.9zM590.8 824.3c-14.3 0-25.9-11.6-25.9-25.9s11.6-25.9 25.9-25.9 25.9 11.6 25.9 25.9-11.5 25.9-25.9 25.9z m103.8 0c-14.3 0-25.9-11.6-25.9-25.9s11.6-25.9 25.9-25.9 25.9 11.6 25.9 25.9-11.6 25.9-25.9 25.9z m103.7 0c-14.3 0-25.9-11.6-25.9-25.9s11.6-25.9 25.9-25.9 25.9 11.6 25.9 25.9-11.5 25.9-25.9 25.9z m25.9-155.7H201.8V461.1h175.1c14.3 0 24.8-7.6 32.4-25.9l31.1-62.2 114 166c12.7 18.2 22.2 25.9 36.5 25.9s27.5-4 36.5-25.9l41.3-77.8h155.6v207.4z m0-259.3H650.9c-14.4 0-26.9 8.1-34.1 25.9l-31.1 62.2-114-166c-10.5-13-22.1-25.9-36.5-25.9-14.3 0-28.6 11.4-36.5 25.9l-41.3 77.8H201.8V201.8h622.5v207.5z" p-id="10180"></path><path d="M876.1 98H149.9C121.2 98 98 121.2 98 149.9v726.2c0 28.7 23.2 51.9 51.9 51.9h726.2c28.7 0 51.9-23.2 51.9-51.9V149.9c0-28.7-23.2-51.9-51.9-51.9zM590.8 824.3c-14.3 0-25.9-11.6-25.9-25.9s11.6-25.9 25.9-25.9 25.9 11.6 25.9 25.9-11.5 25.9-25.9 25.9z m103.8 0c-14.3 0-25.9-11.6-25.9-25.9s11.6-25.9 25.9-25.9 25.9 11.6 25.9 25.9-11.6 25.9-25.9 25.9z m103.7 0c-14.3 0-25.9-11.6-25.9-25.9s11.6-25.9 25.9-25.9 25.9 11.6 25.9 25.9-11.5 25.9-25.9 25.9z m25.9-155.7H201.8V461.1h175.1c14.3 0 24.8-7.6 32.4-25.9l31.1-62.2 114 166c12.7 18.2 22.2 25.9 36.5 25.9s27.5-4 36.5-25.9l41.3-77.8h155.6v207.4z m0-259.3H650.9c-14.4 0-26.9 8.1-34.1 25.9l-31.1 62.2-114-166c-10.5-13-22.1-25.9-36.5-25.9-14.3 0-28.6 11.4-36.5 25.9l-41.3 77.8H201.8V201.8h622.5v207.5z" p-id="10181"></path></svg>