<?xml version="1.0" standalone="no"?><!DOCTYPE svg PUBLIC "-//W3C//DTD SVG 1.1//EN" "http://www.w3.org/Graphics/SVG/1.1/DTD/svg11.dtd"><svg t="1729507722520" class="icon" viewBox="0 0 1024 1024" version="1.1" xmlns="http://www.w3.org/2000/svg" p-id="6313" xmlns:xlink="http://www.w3.org/1999/xlink" width="16" height="16"><path d="M162.990505 961.567216c-35.822089 0-49.127436-13.305347-49.127437-49.127436V169.387306c0-35.822089 16.887556-45.545227 52.709646-45.545227h63.456272c11.770115 0 25.075462-15.352324 25.075462-33.775112 0-14.328836-9.723138-33.775112-24.051974-33.775113h-90.066967c-59.362319 0-94.672664 35.310345-94.672663 94.672664v777.851074c0 59.362319 37.357321 94.672664 94.672663 94.672664h333.657172s-31.216392-33.775112-45.033484-62.432784l-266.61869 0.511744m562.91854-837.725137h72.155923c35.822089 0 45.545227 12.281859 45.545227 48.103948v259.454273c14.84058 7.164418 51.174413 25.075462 64.991504 34.286856v-314.210894c0-59.362319-35.310345-94.672664-94.672664-94.672664h-88.01999c-14.328836 0-25.075462 19.446277-25.075462 34.798601 0 16.375812 13.305347 32.23988 25.075462 32.23988" p-id="6314"></path><path d="M699.298351 187.298351h-92.625687v-110.024988c0-42.474763-34.286857-77.273363-77.273364-77.273363h-103.884058c-42.474763 0-77.273363 34.286857-77.273363 77.273363v110.024988h-92.113943c-27.122439 0-44.521739 24.051974-44.521739 50.662668s17.911044 50.662669 44.521739 50.662669h443.170415c26.610695 0 44.521739-24.051974 44.521739-50.662669 0.511744-26.610695-17.911044-50.662669-44.521739-50.662668z m-221.585208-36.333833c-28.145927 0-51.174413-23.028486-51.174412-51.174413s23.028486-51.174413 51.174412-51.174413 51.174413 23.028486 51.174413 51.174413-23.028486 51.174413-51.174413 51.174413z m154.546727 253.313343H256.127936c-27.122439 0-44.521739 24.051974-44.521739 50.662669s17.911044 50.662669 44.521739 50.662668h197.021489c46.568716-47.08046 112.071964-86.484758 179.110445-101.325337m-421.165417 261.501249c0 27.122439 16.887556 50.662669 43.498251 50.662669h113.607196c5.117441-36.845577 14.84058-73.17941 38.38081-101.837081H256.127936c-27.122439 0-45.033483 24.051974-45.033483 51.174412m358.220889 219.026487c-5.117441 5.117441-5.117441 13.305347 0 18.422789s13.305347 5.117441 18.422789 0 5.117441-13.305347 0-18.422789-13.305347-5.117441-18.422789 0z" p-id="6315"></path><path d="M712.603698 493.833083c-146.358821 0-264.571714 118.724638-264.571714 264.571715 0 146.358821 118.724638 264.571714 264.571714 264.571714 146.358821 0 264.571714-118.724638 264.571714-264.571714s-118.724638-264.571714-264.571714-264.571715z m36.845577 299.882059l10.234883-10.234882c5.117441-5.117441 13.305347-5.117441 18.422789 0l80.855572 81.87906c5.117441 5.117441 5.117441 13.305347 0 18.422789l-36.845577 36.845577c-5.117441 5.117441-13.305347 5.117441-18.422789 0l-80.855572-81.87906c-5.117441-5.117441-5.117441-13.305347 0-18.422789l9.211394-9.211394-15.864068-15.864068-112.071964 122.306846c-10.234883 10.234883-26.610695 10.234883-36.845577 0l-9.211394-9.211394c-10.234883-10.234883-10.234883-26.610695 0-36.845577l127.424287-106.954523-84.949525-84.949525h-26.610695l-31.216391-49.639181 25.075462-25.075462 50.662669 31.216392 0.511744 26.098951 85.461269 85.973013 25.075462-20.981509c-24.563718-33.263368-22.004998-79.832084 8.187906-110.024988 25.075462-25.075462 61.409295-31.216392 92.113943-18.422788l-54.756621 54.244877 46.056971 46.056972 55.268366-54.244878c12.793603 30.704648 6.652674 67.550225-18.422789 92.625687-27.634183 27.634183-69.085457 31.728136-101.837081 13.817092l-23.54023 25.587206 16.887556 16.887556z" p-id="6316"></path></svg>