<?xml version="1.0" standalone="no"?><!DOCTYPE svg PUBLIC "-//W3C//DTD SVG 1.1//EN" "http://www.w3.org/Graphics/SVG/1.1/DTD/svg11.dtd"><svg t="1728271755782" class="icon" viewBox="0 0 1024 1024" version="1.1" xmlns="http://www.w3.org/2000/svg" p-id="25502" xmlns:xlink="http://www.w3.org/1999/xlink" width="16" height="16"><path d="M988.16 430.08h-107.52c-20.48 0-40.96-15.36-46.08-30.72l-15.36-35.84c-5.12-15.36 0-40.96 15.36-56.32l76.8-76.8c15.36-15.36 15.36-35.84 0-46.08l-66.56-66.56c-15.36-15.36-35.84-15.36-46.08 0L716.8 194.56c-15.36 15.36-35.84 15.36-56.32 10.24l-35.84-15.36c-20.48-5.12-30.72-25.6-30.72-46.08V35.84c0-20.48-15.36-35.84-35.84-35.84H465.92c-20.48 0-35.84 15.36-35.84 35.84v107.52c0 20.48-15.36 40.96-30.72 46.08l-35.84 10.24c-15.36 10.24-40.96 5.12-56.32-5.12L230.4 117.76c-10.24-15.36-30.72-15.36-46.08 0L117.76 184.32c-15.36 15.36-15.36 35.84 0 46.08L189.44 307.2c15.36 15.36 20.48 40.96 10.24 56.32l-15.36 35.84c-5.12 15.36-25.6 30.72-46.08 30.72h-102.4c-20.48 0-35.84 15.36-35.84 35.84V563.2c0 20.48 15.36 35.84 35.84 35.84h107.52c20.48 0 40.96 15.36 46.08 30.72l15.36 35.84c0 15.36 0 40.96-15.36 51.2l-71.68 71.68c-15.36 15.36-15.36 35.84 0 46.08l66.56 66.56c15.36 15.36 35.84 15.36 46.08 0L307.2 834.56c10.24-15.36 35.84-15.36 51.2-10.24l35.84 15.36c20.48 5.12 30.72 25.6 30.72 46.08v102.4c0 20.48 15.36 35.84 35.84 35.84h97.28c20.48 0 35.84-15.36 35.84-35.84v-102.4c0-20.48 15.36-40.96 30.72-46.08l25.6-10.24-51.2-51.2c-30.72 10.24-56.32 15.36-92.16 15.36-76.8 0-143.36-30.72-199.68-81.92-51.2-51.2-81.92-122.88-81.92-199.68S256 368.64 307.2 312.32c51.2-51.2 122.88-81.92 199.68-81.92s143.36 30.72 199.68 81.92c51.2 51.2 81.92 122.88 81.92 199.68 0 30.72-5.12 61.44-15.36 87.04l51.2 51.2 10.24-25.6c5.12-20.48 25.6-30.72 46.08-30.72h107.52c20.48 0 35.84-15.36 35.84-35.84V465.92c0-20.48-15.36-35.84-35.84-35.84z m-266.24 194.56c-10.24-10.24-15.36-20.48-10.24-35.84 30.72-92.16 5.12-184.32-76.8-240.64-51.2-35.84-107.52-46.08-168.96-25.6 20.48 25.6 51.2 51.2 71.68 71.68 46.08 46.08 46.08 107.52 5.12 148.48-46.08 40.96-102.4 40.96-148.48-5.12-25.6-25.6-46.08-51.2-71.68-71.68-5.12 0-5.12 5.12-10.24 5.12-10.24 76.8 5.12 143.36 61.44 194.56 61.44 56.32 128 71.68 209.92 46.08 20.48-5.12 30.72-5.12 46.08 10.24 56.32 61.44 163.84 158.72 220.16 215.04 30.72 25.6 61.44 30.72 92.16 5.12 35.84-30.72 35.84-71.68 5.12-102.4-61.44-56.32-163.84-158.72-225.28-215.04z m168.96 296.96c-20.48 0-30.72-15.36-30.72-30.72 0-20.48 15.36-30.72 30.72-30.72 20.48 0 30.72 15.36 30.72 30.72 5.12 15.36-10.24 30.72-30.72 30.72z m0 0" fill="" p-id="25503"></path></svg>