<?xml version="1.0" standalone="no"?><!DOCTYPE svg PUBLIC "-//W3C//DTD SVG 1.1//EN" "http://www.w3.org/Graphics/SVG/1.1/DTD/svg11.dtd"><svg t="1719303123053" class="icon" viewBox="0 0 1024 1024" version="1.1" xmlns="http://www.w3.org/2000/svg" p-id="30483" xmlns:xlink="http://www.w3.org/1999/xlink" width="16" height="16"><path d="M803.2 930.752a46.592 46.592 0 1 1 0 93.248h-67.264a46.592 46.592 0 1 1 0-93.248h67.2z m-155.648-137.664l5.76 0.512a32 32 0 0 1-5.696 63.488h-23.936l-6.4 0.448a47.04 47.04 0 0 0 6.4 93.504h22.464l5.76 0.576a32 32 0 0 1-5.76 63.424h-22.464l-9.6-0.384a110.976 110.976 0 0 1 9.6-221.568h23.872zM456.64 0a310.08 310.08 0 0 1 0 620.16 348.8 348.8 0 0 0-348.8 348.8 38.784 38.784 0 0 1-77.568 0 426.496 426.496 0 0 1 264.448-394.496A310.016 310.016 0 0 1 441.344 0.384L456.704 0z m346.496 775.68a46.592 46.592 0 1 1 0 93.248H736a46.592 46.592 0 1 1 0-93.248h67.2z m111.616-140.544a111.04 111.04 0 0 1 9.6 221.504l-9.6 0.448h-22.528a32 32 0 0 1-5.76-63.488l5.76-0.512h22.528a46.976 46.976 0 0 0 6.4-93.568l-6.4-0.384h-24a32 32 0 0 1-5.696-63.552l5.76-0.512h23.936z m-111.616-14.592a46.592 46.592 0 0 1 0 93.248H736a46.592 46.592 0 1 1 0-93.248h67.2zM456.64 77.504a232.576 232.576 0 1 0-0.192 465.088h0.192a232.576 232.576 0 1 0 0-465.088z" p-id="30484"></path></svg>
