<?xml version="1.0" standalone="no"?><!DOCTYPE svg PUBLIC "-//W3C//DTD SVG 1.1//EN" "http://www.w3.org/Graphics/SVG/1.1/DTD/svg11.dtd"><svg t="1719302548618" class="icon" viewBox="0 0 1024 1024" version="1.1" xmlns="http://www.w3.org/2000/svg" p-id="12535" xmlns:xlink="http://www.w3.org/1999/xlink" width="16" height="16"><path d="M806.323 555.77v95.047a141.93 141.93 0 0 1 21.778 73.129 161.707 161.707 0 0 1-159.66 160.893h-304.8a119.943 119.943 0 0 0-123.316-109.705 124.317 124.317 0 0 0 0 248.633 118.849 118.849 0 0 0 108.867-73.129h312.06a224.366 224.366 0 0 0 159.683-65.8 215.897 215.897 0 0 0 65.311-160.892 227.81 227.81 0 0 0-65.311-160.87 14.449 14.449 0 0 1-14.519-7.306zM240.231 965.274a58.517 58.517 0 1 1 58.169-58.518 57.493 57.493 0 0 1-58.169 58.518zM298.4 555.77v-65.823A173.225 173.225 0 0 1 204.05 343.69v-29.247a161.684 161.684 0 0 1 159.66-160.87h304.8a124.294 124.294 0 0 0 116.104 95.07A127.667 127.667 0 0 0 907.93 124.326 121.455 121.455 0 0 0 791.804 0.01a116.708 116.708 0 0 0-116.126 95.07H370.877a224.343 224.343 0 0 0-159.66 65.8 199.842 199.842 0 0 0-65.31 153.564v29.247a227.716 227.716 0 0 0 65.31 160.892 342.703 342.703 0 0 0 87.09 51.188zM791.92 58.503a58.517 58.517 0 0 1 0 117.011 62.682 62.682 0 0 1-58.167-58.494c-7.26-29.27 21.755-58.517 58.168-58.517z m0 0"  p-id="12536"></path><path d="M697.456 533.83a21.941 21.941 0 0 0 0-43.883H566.834V351.02a21.778 21.778 0 1 0-43.557 0v138.928H392.632a21.941 21.941 0 0 0 0 43.882h130.645v138.929a21.778 21.778 0 1 0 43.557 0V533.829h130.622z m0 0"  p-id="12537"></path></svg>
