<?xml version="1.0" standalone="no"?><!DOCTYPE svg PUBLIC "-//W3C//DTD SVG 1.1//EN" "http://www.w3.org/Graphics/SVG/1.1/DTD/svg11.dtd"><svg t="1719467759124" class="icon" viewBox="0 0 1024 1024" version="1.1" xmlns="http://www.w3.org/2000/svg" p-id="18159" xmlns:xlink="http://www.w3.org/1999/xlink" width="16" height="16"><path d="M596 63.9c15.5 0 28 12.5 28 28s-12.5 28-28 28H428c-15.5 0-28-12.5-28-28s12.5-28 28-28h168zM731.4 287.3c13.7 0 24.8 11.1 24.8 24.8v6.5c0 13.6-11.1 24.8-24.8 24.8H292.6c-13.7 0-24.8-11.1-24.8-24.8v-6.5c0-13.7 11.1-24.8 24.8-24.8h438.8zM385.1 458.3c12.5 0 22.7 11.1 22.7 24.8v6.5c0 13.6-10.3 24.8-22.7 24.8h-94.5c-12.6 0-22.8-11.1-22.8-24.8v-6.5c0-13.6 10.2-24.8 22.8-24.8h94.5zM475.9 718.5l39.5 18.3c-3.3 11.4-31 69.9-47.2 88.1L429.9 803c16.8-21.9 35.8-57.7 46-84.5z" p-id="18160"></path><path d="M686.1 605.6v-50.4c36.1-4.5 78.6-15 105.4-25.6L776 482c-35.5 13-88 24-136.4 28.4v128.1c0 58-1.7 94.2-12.7 125.9-9.4-16.6-21.6-33.7-29.6-45.1l-29 17.9v-19.5h61.6v-45.1h-61.6v-26.4h63.9v-44.8H603l9.6-46.3h16V513H572l-6.2-35.7-50.8 2.9 7 32.8h-62.3v42.3h19.1l9.4 46.3h-39.5v44.8H522v26.4h-67.2v45.1H522v55.6c0 20.4-1.2 24.1-15.1 25.3l-15.1 1.6 13.1 45.9 21.6-2c38.5-4.3 41.6-13.8 41.9-40.4v-53.1c8.2 11.3 17.5 26.8 26.8 43.4l28.6-19.9c-7 16.6-15.9 32.5-28.9 51.6l45.6 23.6c35.5-59.8 45.7-102.5 45.7-195.9H717v188.2h47.8V653.5h34.9v-47.9H686.1zM559 601.5h-27.2l-8.7-46.3h45.7l-9.8 46.3z" p-id="18161"></path><path d="M287.9 63.9c15.5 0 28 12.5 28 28s-12.5 28-28 28h-45.5c-42.5 0-77 34.6-77 77v630.2c0 42.5 34.6 77 77 77h539.2c42.5 0 77-34.6 77-77V196.9c0-42.5-34.6-77-77-77h-45.4c-15.5 0-28-12.5-28-28s12.5-28 28-28h45.4c73.4 0 133 59.7 133 133v630.2c0 73.4-59.7 133-133 133H242.4c-73.4 0-133-59.7-133-133V196.9c0-73.4 59.7-133 133-133h45.5z" p-id="18162"></path></svg>