<?xml version="1.0" standalone="no"?><!DOCTYPE svg PUBLIC "-//W3C//DTD SVG 1.1//EN" "http://www.w3.org/Graphics/SVG/1.1/DTD/svg11.dtd"><svg t="1753858582811" class="icon" viewBox="0 0 1024 1024" version="1.1" xmlns="http://www.w3.org/2000/svg" p-id="19043" xmlns:xlink="http://www.w3.org/1999/xlink" width="16" height="16"><path d="M555.515635 549.298541h74.458844c2.340553-11.263911 4.461679-24.795234 4.461679-36.132287 0-81.480503-72.045148-149.210256-155.500492-140.140613A138.897194 138.897194 0 0 0 392.408345 604.155253c26.623791 29.768909 64.73092 46.811061 104.593464 46.811061v-40.667109a57.343549 57.343549 0 0 1 58.513826-61.000664zM582.724564 0a60.708094 60.708094 0 0 1 60.708095 61.073806l11.337054 74.605128c31.012328 11.556481 59.976672 28.379206 85.57647 49.736752l69.777737-29.403198c13.897034-7.241086 29.988336-8.777074 45.055646-4.534821a70.948014 70.948014 0 0 1 38.399699 29.47634l89.965007 151.477667a63.999497 63.999497 0 0 1-20.260412 83.674771l-60.854379 47.542483c2.340553 15.798733 2.340553 33.791734 2.340553 49.736753 0 11.263911 0 24.868376-2.340553 36.205429H708.748717c0-11.337054 2.340553-22.674108 2.340553-36.205429 0-117.685932-96.913524-214.818884-214.014318-214.818884C379.901015 298.420512 283.060633 395.699748 282.987491 513.166254a214.160603 214.160603 0 0 0 213.941176 214.672599V1023.991954H409.23107a62.097798 62.097798 0 0 1-63.121789-58.66011l-11.19077-74.678271a406.96366 406.96366 0 0 1-85.57647-49.736752l-69.924022 29.330056a61.22009 61.22009 0 0 1-44.982504 4.461679 70.801729 70.801729 0 0 1-38.399698-29.256913l-87.770739-151.404525c-15.725591-29.330055-8.996501-65.535485 20.260412-83.601629l60.854379-47.542483c-2.267411-18.066144-2.267411-33.938019-2.267411-49.66361 0-15.871875 0-31.743751 2.267411-49.809894l-58.513826-47.469342a62.390367 62.390367 0 0 1-22.674107-83.601629l87.917023-151.477666c17.919859-29.47634 54.125289-40.740251 83.382202-24.868377l69.85088 29.403198c26.331222-20.040985 55.149281-36.790568 85.649613-49.736752l8.9965-76.799397c2.55998-32.914027 29.988336-58.513826 62.975506-58.806395h175.760904z m440.316541 701.8002l0.65828 5.997667 0.292569 6.07081v232.592458c0 39.789402-23.6981 72.557144-54.271573 77.018823L962.552437 1023.991954H624.635092c-31.451181 0-57.489834-29.915194-61.000663-68.461176L563.195575 946.461135V713.868677c0-4.095968 0.438854-8.045651 0.95085-12.068477l108.250578 97.206094 21.211262 19.016993c129.242413 116.00366 70.582303 119.441347 188.195092 10.678773l11.629623-10.532488 21.211262-19.016994c52.955012-47.615626 103.862041-93.329552 108.396863-97.279236z m-60.56181-65.462343c17.554148 0 33.352881 9.069643 44.54365 23.405531-13.019326 11.84905-39.204263 35.620292-67.437185 60.854379l-24.502664 21.7964c-12.214761 10.825058-24.283238 21.430689-35.25458 30.939185-83.235917 71.898864-77.018823 90.915857-108.250578 60.56181l-15.945018-16.01816a784.597264 784.597264 0 0 0-42.861377-39.935686 4795.208038 4795.208038 0 0 1-101.667773-91.354711l-17.481006-16.091302-12.726757-11.84905a58.074972 58.074972 0 0 1 35.327723-21.576973l8.411362-0.731423h337.917345z"  p-id="19044"></path></svg>
