<?xml version="1.0" standalone="no"?><!DOCTYPE svg PUBLIC "-//W3C//DTD SVG 1.1//EN" "http://www.w3.org/Graphics/SVG/1.1/DTD/svg11.dtd"><svg t="1719467590174" class="icon" viewBox="0 0 1024 1024" version="1.1" xmlns="http://www.w3.org/2000/svg" p-id="14272" xmlns:xlink="http://www.w3.org/1999/xlink" width="16" height="16"><path d="M290.60716039 469.07559349c-16.60765755 0-30.66029086-13.92488108-30.66029086-30.66028744 0-16.60765755 13.92488108-30.66029086 30.66029086-30.66029088h310.94643677c16.60765755 0 30.66029086 13.92488108 30.66028745 30.66029088 0 16.60765755-13.92488108 30.66029086-30.66028745 30.66028744H290.60716039z m0-143.46460383c-16.60765755 0-30.66029086-13.92488108-30.66029086-30.66029084 0-16.60765755 13.92488108-30.66029086 30.66029086-30.66028744h310.94643677c16.60765755 0 30.66029086 13.92488108 30.66028745 30.66028744 0 16.60765755-13.92488108 30.66029086-30.66028745 30.66029084H290.60716039z m0 0" p-id="14273"></path><path d="M81.73393746 1016.87276754c-15.71339871 0-28.36076769-12.64736898-28.36076772-28.36076759v-943.82591393c0-15.71339871 12.64736898-28.36076769 28.36076772-28.36076769h733.93067994c15.71339871 0 28.36076769 12.64736898 28.36076766 28.36076769v276.1981085c0 17.37416416-15.20239319 31.17129301-32.19330406 28.74402097-13.66938006-1.91626647-24.01722576-13.41387552-24.01722579-27.84976219v-233.14594972c0-8.68708038-7.15406719-15.96889981-15.96889981-15.96890319H125.55259938c-8.68708038 0-15.96889981 7.15406719-15.96889981 15.96890319v856.18858325c0 8.68708038 7.15406719 15.96889981 15.96889981 15.96889974H359.97606468c17.37416416 0 31.17129301 15.20239319 28.74402098 32.19330411-1.91626647 13.66938006-13.41387552 24.01722576-27.84976218 24.01722914H81.73393746v-0.12775228z m0 0" p-id="14274"></path><path d="M297.12246978 625.95407628c-16.60765755 0-30.66029086-13.92488108-30.66028745-30.66029087 0-16.60765755 13.92488108-30.66029086 30.66028745-30.66028746h167.35408076c16.60765755 0 30.66029086 13.92488108 30.66029087 30.66028746 0 16.60765755-13.92488108 30.66029086-30.66029087 30.66029087h-167.35408076zM746.42346528 1017.38377313c-38.96411792 0-74.09569949-24.27273024-88.27608503-60.68182397H560.5454571c-12.90287344 0-24.40047908-6.77081388-30.40478635-18.26842293-6.13205954-11.3698568-5.49330178-24.65598359 1.78851766-35.38708264l28.48851989-42.668902v-119.95838355c0-79.84450233 50.58947921-150.36316991 126.21819187-176.04116461 10.09234471-24.52823133 33.34306389-40.24163002 59.78756511-40.24162997 26.44450121 0 49.69522041 15.71339871 59.91531401 40.24162997 75.62871269 25.6779912 126.21819194 96.19665884 126.21819187 176.04116461v119.95838355l28.4885199 42.668902c7.15406719 10.73110247 7.79282495 24.01722576 1.66076543 35.38708264-6.13205954 11.3698568-17.50191639 18.14067075-30.40478642 18.14067069h-97.60192314c-14.18038553 36.53684596-49.3119671 60.80957276-88.27608165 60.80957621z m-64.13110703-99.26268856c1.78851765 0 3.32153084 1.14975988 3.96028863 2.81052873l7.15406715 20.18468943c3.9602886 10.98660354 10.98660354 20.31244163 20.31244174 27.08325549 9.45359038 6.89856611 20.69569497 10.47559799 32.57655726 10.47559799s23.122967-3.70478412 32.57655737-10.60335023c9.3258381-6.77081388 16.35215307-16.09665205 20.31244162-27.08325553l7.15406727-20.05693715c0.63875438-1.66076539 2.17177099-2.81052531 3.96028852-2.81052873h114.0818251l-24.91148462-37.30335253-5.11004848-7.66507269c-0.51100549-0.63875438-0.76650659-1.53301318-0.76650659-2.2995198v-130.43398151c0-31.68229853-9.83684366-61.8315838-28.61626872-87.12632525-8.94258482-12.26411572-19.80143615-22.99521814-32.06555525-31.93779949-12.39186786-8.94258482-26.06124454-15.96889981-40.75263214-20.82344721l-13.79713226-4.59904293c-1.14975988-0.38325328-2.17177099-1.27751206-2.55502425-2.55502428l-5.11004843-13.66937998c-1.91626647-4.98229623-5.11004846-9.19808591-9.45358702-12.2641157-4.34354187-3.06602977-9.45359038-4.72679517-14.81913987-4.72679519-5.36554956 0-10.47559799 1.66076539-14.94689209 4.72679519-4.34354187 2.93827751-7.53732047 7.28181938-9.45359036 12.2641157l-5.11004853 13.66937998c-0.38325328 1.14975988-1.40526435 2.17177099-2.55502425 2.55502428l-13.79712877 4.59904293c-14.6913877 4.85454745-28.36076769 11.88086235-40.75263563 20.82344721-12.26411572 8.94258482-23.122967 19.67368732-32.19330402 31.93779949-18.65167629 25.2947379-28.61626875 55.4440232-28.61626874 87.12632525V870.98088837c0 0.76650659-0.25550102 1.66076539-0.76650998 2.29952317l-5.11004849 7.66507275-24.91148459 37.30335248h114.08182842z" p-id="14275"></path></svg>