<?xml version="1.0" standalone="no"?><!DOCTYPE svg PUBLIC "-//W3C//DTD SVG 1.1//EN" "http://www.w3.org/Graphics/SVG/1.1/DTD/svg11.dtd"><svg t="1733740522269" class="icon" viewBox="0 0 1024 1024" version="1.1" xmlns="http://www.w3.org/2000/svg" p-id="55442" xmlns:xlink="http://www.w3.org/1999/xlink" width="200" height="200"><path d="M628.829091 427.147636a24.994909 24.994909 0 0 0-7.214546-17.687272 24.948364 24.948364 0 0 0-17.547636-7.261091h-0.232727a24.948364 24.948364 0 1 0-0.093091 49.850182h0.279273a24.948364 24.948364 0 0 0 24.808727-24.901819z m129.396364 0a28.625455 28.625455 0 0 1-29.649455 29.602909h-47.010909a81.035636 81.035636 0 0 1-77.684364 54.551273c-35.746909 0-66.094545-21.643636-77.684363-54.551273H190.882909a28.672 28.672 0 0 1-29.649454-29.649454c0-17.175273 12.474182-29.602909 29.649454-29.602909h335.313455a81.128727 81.128727 0 0 1 77.730909-54.551273c35.84 0 66.094545 21.643636 77.637818 54.551273h47.010909a29.789091 29.789091 0 0 1 21.317818 8.331636 29.835636 29.835636 0 0 1 8.331637 21.317818z m-407.738182-169.890909h0.186182a29.090909 29.090909 0 0 0 21.410909-11.403636c3.118545-3.956364 4.561455-8.098909 3.816727-11.124364l-0.325818-1.210182V232.261818a24.576 24.576 0 0 0-24.762182-24.855273h-0.186182a24.948364 24.948364 0 1 0-17.640727 42.589091c4.654545 4.654545 10.938182 7.214545 17.501091 7.214546z m411.648-31.232v2.327273a28.672 28.672 0 0 1-29.602909 29.649455H432.221091a81.082182 81.082182 0 0 1-77.730909 54.551272c-35.84 0-66.094545-21.597091-77.730909-54.551272H190.836364a28.672 28.672 0 0 1-29.602909-29.60291c0-14.196364 13.312-25.739636 29.602909-25.739636h86.016c11.357091-33.838545 39.005091-54.504727 73.821091-54.504727 35.84 0 66.094545 21.597091 77.684363 54.551273h300.264727c13.684364 0 25.832727 7.912727 32.442182 21.178181l1.117091 2.141091z m138.984727 440.32c0.651636-0.791273 1.024-4.514909-1.070545-8.145454l-67.956364-67.956364c-0.837818-0.605091-4.375273-0.930909-7.773091 0.791273l-31.278545 35.374545 74.007272 74.007273 34.071273-34.024727z m-72.238545 72.145455l-73.495273-73.448727-180.736 180.782545-30.254546 103.656727 103.749819-30.254545 180.736-180.689455z m113.012363-114.688c11.077818 11.124364 17.454545 26.763636 17.454546 43.008 0 16.197818-6.376727 31.883636-17.454546 42.961454l-265.309091 259.909819-2.885818 0.837818-135.354182 39.842909a39.330909 39.330909 0 0 1-12.288 1.954909 45.428364 45.428364 0 0 1-42.170182-30.208 34.676364 34.676364 0 0 1 0-27.461818l40.401455-137.309091 262.516364-262.609455c11.496727-11.264 26.996364-17.501091 43.008-17.454545 16.197818 0 31.883636 6.376727 42.961454 17.454545l69.12 69.073455zM136.145455 957.114182h296.680727v55.342545H135.912727a80.430545 80.430545 0 0 1-56.506182-23.412363 80.477091 80.477091 0 0 1-23.412363-56.832v-828.509091c0-21.317818 8.378182-41.751273 23.412363-56.832 15.034182-14.987636 35.374545-23.412364 56.599273-23.458909h647.447273c20.992 0 41.611636 8.517818 56.506182 23.458909 14.987636 14.941091 23.505455 35.700364 23.412363 56.878545v398.103273H808.029091V103.703273a24.948364 24.948364 0 0 0-24.901818-24.901818H136.238545a24.948364 24.948364 0 0 0-24.808727 24.901818v828.509091c0 6.609455 2.606545 13.032727 7.214546 17.687272a25.134545 25.134545 0 0 0 17.547636 7.214546h-0.046545z m313.43709-331.264a24.948364 24.948364 0 0 0-24.762181-24.948364h-0.186182a24.948364 24.948364 0 0 0-24.901818 24.855273v0.093091c0 6.516364 2.606545 13.032727 7.261091 17.594182 4.654545 4.654545 10.938182 7.261091 17.50109 7.261091h0.232728a24.855273 24.855273 0 0 0 24.855272-24.855273z m-24.948363-84.247273c35.84 0 66.094545 21.597091 77.730909 54.551273h202.984727l-59.252363 59.252363H502.318545a81.128727 81.128727 0 0 1-77.684363 54.597819c-35.746909 0-66.094545-21.643636-77.684364-54.597819H190.882909a28.672 28.672 0 0 1-29.649454-29.602909c0-17.175273 12.474182-29.649455 29.649454-29.649454h156.066909a81.128727 81.128727 0 0 1 77.730909-54.551273z" p-id="55443"></path></svg>
