<?xml version="1.0" standalone="no"?><!DOCTYPE svg PUBLIC "-//W3C//DTD SVG 1.1//EN" "http://www.w3.org/Graphics/SVG/1.1/DTD/svg11.dtd"><svg t="1765613642822" class="icon" viewBox="0 0 1024 1024" version="1.1" xmlns="http://www.w3.org/2000/svg" p-id="16808" xmlns:xlink="http://www.w3.org/1999/xlink" width="16" height="16"><path d="M425.882 772.813a32.768 32.768 0 0 0-32.768 32.768v58.06a20.48 20.48 0 0 1-20.48 20.48h-261.12a20.48 20.48 0 0 1-20.48-20.48V160.359a20.48 20.48 0 0 1 20.48-20.48h261.12a20.48 20.48 0 0 1 20.48 20.48v61.44a32.768 32.768 0 1 0 65.536 0v-61.44a86.067 86.067 0 0 0-85.965-85.964h-261.12A86.067 86.067 0 0 0 25.6 160.358v703.284a86.067 86.067 0 0 0 85.965 85.964h261.12a86.067 86.067 0 0 0 85.965-85.964V805.58a32.82 32.82 0 0 0-32.768-32.768z m486.553-698.42h-261.12a86.067 86.067 0 0 0-85.965 85.965v61.44a32.768 32.768 0 0 0 65.536 0v-61.44a20.48 20.48 0 0 1 20.48-20.48h261.12a20.48 20.48 0 0 1 20.48 20.48v703.284a20.48 20.48 0 0 1-20.48 20.48h-261.12a20.48 20.48 0 0 1-20.48-20.48V805.58a32.768 32.768 0 0 0-65.536 0v58.06a86.067 86.067 0 0 0 85.965 85.965h261.12a86.067 86.067 0 0 0 85.965-85.964V160.358a86.067 86.067 0 0 0-85.965-85.964z" p-id="16809"></path><path d="M721.562 509.133a66.048 66.048 0 1 0 132.096 0 66.048 66.048 0 1 0-132.096 0zM654.234 500.173a30.26 30.26 0 0 0-9.37-21.504L512.819 352.307a30.26 30.26 0 0 0-41.779 43.725l77.62 74.24H336.844a30.72 30.72 0 0 0-11.469 2.253 96.307 96.307 0 1 0 5.12 57.497 30.72 30.72 0 0 0 6.554 0.717h214.118L476.16 605.44a30.26 30.26 0 1 0 42.752 42.803l126.362-126.361a30.413 30.413 0 0 0 8.96-21.71zM236.39 544.922a35.84 35.84 0 1 1 35.84-35.84 35.84 35.84 0 0 1-35.84 35.84z" p-id="16810"></path></svg>