<?xml version="1.0" standalone="no"?><!DOCTYPE svg PUBLIC "-//W3C//DTD SVG 1.1//EN" "http://www.w3.org/Graphics/SVG/1.1/DTD/svg11.dtd"><svg t="1770714140409" class="icon" viewBox="0 0 1024 1024" version="1.1" xmlns="http://www.w3.org/2000/svg" p-id="5867" xmlns:xlink="http://www.w3.org/1999/xlink" width="64" height="64"><path d="M332.16 305.066667a40.746667 40.746667 0 0 1-40.533333-40.533334V147.2a40.533333 40.533333 0 1 1 81.066666 0v117.333333a40.533333 40.533333 0 0 1-40.533333 40.533334z m359.68 0a40.746667 40.746667 0 0 0 40.533333-40.533334V147.2a40.533333 40.533333 0 1 0-81.066666 0v117.333333a40.746667 40.746667 0 0 0 40.533333 40.533334z" p-id="5868"></path><path d="M121.6 370.56v-85.333333a120.533333 120.533333 0 0 1 120.32-120.32h37.12v98.56a58.026667 58.026667 0 0 0 116.053333 0v-98.133334h243.626667v98.56a58.026667 58.026667 0 0 0 116.053333 0V165.333333h27.306667a120.533333 120.533333 0 0 1 120.32 120.32v85.333334z m0 81.066667v345.386666A120.533333 120.533333 0 0 0 241.92 917.333333h540.16a120.533333 120.533333 0 0 0 120.32-120.32V451.626667z m221.013333 296.106666h-40.106666a40.746667 40.746667 0 0 1 0-81.28h40.106666a40.746667 40.746667 0 0 1 0 81.28z m0-139.946666h-40.106666a40.533333 40.533333 0 1 1 0-81.066667h40.106666a40.533333 40.533333 0 1 1 0 81.066667z m189.44 139.946666h-40.32a40.746667 40.746667 0 1 1 0-81.28h39.893334a40.746667 40.746667 0 0 1 0 81.28z m0-139.946666h-40.32a40.533333 40.533333 0 1 1 0-81.066667h39.893334a40.533333 40.533333 0 0 1 0 81.066667z m184.32 0h-39.893333a40.533333 40.533333 0 0 1 0-81.066667h39.893333a40.533333 40.533333 0 1 1 0 81.066667z" p-id="5869"></path></svg>