<?xml version="1.0" standalone="no"?><!DOCTYPE svg PUBLIC "-//W3C//DTD SVG 1.1//EN" "http://www.w3.org/Graphics/SVG/1.1/DTD/svg11.dtd"><svg t="1721122734758" class="icon" viewBox="0 0 1024 1024" version="1.1" xmlns="http://www.w3.org/2000/svg" p-id="7120" xmlns:xlink="http://www.w3.org/1999/xlink" width="16" height="16"><path d="M493.4144 51.2c2.1504 0 4.2496 0.1536 6.144 0.512h3.2768a38.8096 38.8096 0 0 1 13.312 7.7312l54.5792 33.4336a255.5904 255.5904 0 0 0-45.2608 80.9472l-33.792-20.992-258.9696 160.0512 82.2784 51.1488 197.376-122.112a255.5904 255.5904 0 0 0 13.9264 98.7648l-123.4944 77.824 88.9344 53.2992 81.2032-50.0224c21.504 25.2928 47.8208 46.336 77.568 61.696l-112.128 69.4784v295.68l254.5664-158.976V510.8224a254.3616 254.3616 0 0 0 91.136-26.5728v233.216l-0.512 6.0928a46.7968 46.7968 0 0 1-21.7088 32.768l-344.576 212.3264-6.656 2.2528-3.328-0.0512-3.7888 1.024a40.0384 40.0384 0 0 1-4.1472 0.7168L495.0528 972.8a39.0656 39.0656 0 0 1-12.288-1.8944h-3.2768l-6.656-2.2528-347.904-215.6032a46.6944 46.6944 0 0 1-22.272-38.912V309.5552a35.072 35.072 0 0 1 0.0512-8.9088V292.864l3.328-6.656 2.2528-2.2016 4.4032-3.328 4.4544-4.4544 4.4544-3.328 345.7024-214.528a52.224 52.224 0 0 1 15.5648-6.656h4.4032a37.2736 37.2736 0 0 1 6.144-0.512zM190.464 395.1616v296.7552l254.5664 155.5968V552.96L190.464 395.1616zM768 102.4a51.2 51.2 0 0 1 51.2 51.2l-0.0512 51.2H870.4a51.2 51.2 0 0 1 0 102.4h-51.2512L819.2 358.4a51.2 51.2 0 0 1-102.4 0l-0.0512-51.2H665.6a51.2 51.2 0 0 1 0-102.4h51.1488L716.8 153.6a51.2 51.2 0 0 1 51.2-51.2z"  p-id="7121"></path></svg>
