<?xml version="1.0" standalone="no"?><!DOCTYPE svg PUBLIC "-//W3C//DTD SVG 1.1//EN" "http://www.w3.org/Graphics/SVG/1.1/DTD/svg11.dtd"><svg t="1732871210294" class="icon" viewBox="0 0 1024 1024" version="1.1" xmlns="http://www.w3.org/2000/svg" p-id="7202" xmlns:xlink="http://www.w3.org/1999/xlink" width="200" height="200"><path d="M959.332 641.534c-15.877-24.29-56.042-14.655-75.678-2.826-30.314 18.166-121.507 96.207-154.256 100.329-32.429 4.117-120.183-2.294-182.638-8.206-70.66-6.63-43.107-35.222-31.925-38.268 11.18-3.085 146.517-10.393 191.736-15.587 40.708-4.695 34.83-44.791-11.072-46.406-45.828-1.575-253.654-15.654-323.49-10.96-69.911 4.69-171.996 98.069-171.996 98.069l3.801 14.835L352.658 864.7l19.889-1.577s36.513-20.998 66.862-27.308c30.349-6.337 198.078 12.115 256.02 3.695 57.94-8.423 207.178-133.335 239.932-160.531 15.906-13.327 27.302-32.318 23.97-37.444h0.001zM314.284 871.29c-12.076-11.072-130.538-115.809-144.296-128.205-13.69-12.435-29.132-9.497-38.487-2.008-9.388 7.453-48.37 37.768-59.513 45.436-17.236 11.857-1.975 31.672 7.88 40.99 9.786 9.28 115.344 107.136 130.93 122.544 15.625 15.374 31.678 13.725 43.429 3.836 11.717-9.855 38.913-33.215 56.329-45.436 17.413-12.182 15.871-26.12 3.728-37.157z m29.232-286.908h438.673c32.232 0 58.36-26.13 58.36-58.36V120.866c0-32.232-26.128-58.36-58.36-58.36H343.516c-32.232 0-58.36 26.128-58.36 58.36V526.02c0 32.232 26.128 58.36 58.36 58.36zM499.239 62.505h127.226v223.881l-63.613-26.947-63.613 26.947V62.506z" p-id="7203"></path></svg>
