<?xml version="1.0" standalone="no"?><!DOCTYPE svg PUBLIC "-//W3C//DTD SVG 1.1//EN" "http://www.w3.org/Graphics/SVG/1.1/DTD/svg11.dtd"><svg t="1719467712785" class="icon" viewBox="0 0 1024 1024" version="1.1" xmlns="http://www.w3.org/2000/svg" p-id="17166" xmlns:xlink="http://www.w3.org/1999/xlink" width="16" height="16"><path d="M212.270035 1023.99988a43.441995 43.441995 0 0 1-29.266996-11.282999L38.551055 881.359897a43.578995 43.578995 0 0 1-2.916999-61.514993l46.259994-50.889994a43.590995 43.590995 0 0 1 61.513993-2.953l144.452983 131.369985a43.578995 43.578995 0 0 1 2.917 61.513993l-46.259995 50.889994A43.441995 43.441995 0 0 1 212.270035 1023.99988z m-3.474999-39.718995a5.199999 5.199999 0 0 0 7.335999-0.347l46.259994-50.889994a5.175999 5.175999 0 0 0-0.348-7.335999l-144.439983-131.294985a5.199999 5.199999 0 0 0-7.334999 0.347l-46.259995 50.889994a5.175999 5.175999 0 0 0 0.348 7.335999zM259.20103 201.063976h552.016935v51.149994H259.20003v-51.149994zM259.20103 388.970954h383.273955v51.149994H259.20003v-51.149994z" p-id="17167"></path><path d="M928.772951 549.397936a25.568997 25.568997 0 0 1-25.569997-25.569997V134.225984a83.16099 83.16099 0 0 0-83.15999-83.16199H218.190034a83.16099 83.16099 0 0 0-83.15999 83.16199v389.603955a25.574997 25.574997 0 1 1-51.150994 0V134.224984A134.409984 134.409984 0 0 1 218.190034 0H820.079964a134.409984 134.409984 0 0 1 134.261984 134.224984v389.603955a25.568997 25.568997 0 0 1-25.569997 25.568997zM156.665042 743.659913l-8.390999-32.979996 8.476999-7.855999c4.654999-4.319999 114.849987-105.726988 195.329977-111.199987 10.475999-0.72 24.265997-1.08 40.959995-1.08 67.521992 0 173.16098 5.808999 243.053971 9.668999 28.473997 1.564 50.976994 2.805 62.879993 3.214999 39.779995 1.415 58.795993 24.450997 59.577993 45.253995 0.757 19.002998-13.243998 39.892995-46.246994 43.715995-23.819997 2.792-69.135992 6.006999-112.949987 9.122999-30.012996 2.134-66.057992 4.690999-81.820991 6.354999a136.085984 136.085984 0 0 0 23.991998 4.07c31.849996 3.079 111.373987 10.215999 162.250981 10.215998a239.305972 239.305972 0 0 0 28.138996-1.240999c18.530998-2.371 74.571991-44.993995 107.984988-70.463992 20.132998-15.315998 37.533996-28.547997 48.804994-35.399996 12.671999-7.756999 34.119996-16.134998 56.139993-16.134998 22.415997 0 40.537995 8.961999 51.025994 25.220997 16.805998 26.239997-28.869997 65.486992-29.329996 65.883992l-2.123 1.787C831.609963 803.870906 745.432973 861.524899 700.959978 868.065898c-12.026999 1.775-28.249997 2.644-49.572994 2.644-34.852996 0-78.655991-2.358-117.306987-4.43-32.979996-1.776-64.120992-3.451-84.97299-3.450999-13.541998 0-18.444998 0.72-19.859997 1.042-28.819997 6.119999-65.163992 27.095997-65.535993 27.306997l-3.797999 2.209999-33.996996 2.78M192.213037 723.240915l147.319983 132.809985 8.599999-0.708c11.171999-6.205999 43.989995-23.334997 73.070992-29.503997 6.205999-1.315 14.794998-1.899 27.989996-1.899 21.906997 0 53.557994 1.713 87.06999 3.513 38.154996 2.06 81.39999 4.380999 115.209987 4.381 19.139998 0 33.896996-0.744 43.888995-2.221 20.591998-3.041 79.685991-28.845997 244.034971-167.563981l2.072-1.749999a83.97999 83.97999 0 0 0 16.954998-19.659998c-2.743-1.528-6.949999-2.806-13.453999-2.806-13.044998 0-27.430997 5.225999-35.883996 10.400999-9.593999 5.821999-27.032997 19.089998-45.502994 33.139996-57.269993 43.554995-99.866988 74.659991-126.602985 78.084991a270.894968 270.894968 0 0 1-33.164996 1.577c-52.565994 0-133.579984-7.273999-165.962981-10.389999-15.874998-1.514-64.294992-6.117999-67.235992-39.543995-1.775-20.169998 16.134998-36.169996 29.788996-39.954996 6.949999-1.949 27.864997-3.649 96.193989-8.501999 41.356995-2.942 88.23699-6.267999 111.211987-8.961999 6.987999-0.806 10.401999-2.842 11.579999-3.884999-1.489-2.333-7.954999-7.012999-21.819998-7.446999-12.287999-0.422-34.951996-1.676-63.648992-3.252-69.432992-3.897-174.46498-9.631999-240.869972-9.631999-15.824998 0-28.720997 0.335-38.327996 0.993-50.504994 3.438-127.397985 62.184993-162.511981 92.842989z" p-id="17168"></path></svg>