<?xml version="1.0" standalone="no"?><!DOCTYPE svg PUBLIC "-//W3C//DTD SVG 1.1//EN" "http://www.w3.org/Graphics/SVG/1.1/DTD/svg11.dtd"><svg t="1773114663612" class="icon" viewBox="0 0 1024 1024" version="1.1" xmlns="http://www.w3.org/2000/svg" p-id="7638" width="16" height="16" xmlns:xlink="http://www.w3.org/1999/xlink"><path d="M298.658909 596.363636a46.545455 46.545455 0 0 0-93.090909 0v231.749819h93.090909v-231.749819zM401.454545 628.363636v199.749819h93.09091V628.363636a46.545455 46.545455 0 0 0-93.09091 0zM965.818182 884.363636H93.090909V104.727273a34.909091 34.909091 0 1 0-69.818182 0V907.636364a46.545455 46.545455 0 0 0 46.545455 46.545454h896a34.909091 34.909091 0 1 0 0-69.818182z m-349.090909-581.818181l311.272727 107.636363V69.818182H205.568v372.363636l219.159273 46.545455 192-186.181818z m0 168.727272v356.840728h93.090909V471.272727a46.545455 46.545455 0 0 0-93.090909 0z m215.272727 69.818182v287.022546h93.090909V541.090909a46.545455 46.545455 0 0 0-93.090909 0z" p-id="7639"></path></svg>
