<?xml version="1.0" standalone="no"?><!DOCTYPE svg PUBLIC "-//W3C//DTD SVG 1.1//EN" "http://www.w3.org/Graphics/SVG/1.1/DTD/svg11.dtd"><svg t="1728271424945" class="icon" viewBox="0 0 1024 1024" version="1.1" xmlns="http://www.w3.org/2000/svg" p-id="13928" xmlns:xlink="http://www.w3.org/1999/xlink" width="16" height="16"><path d="M834.348184 0.0128H75.710202A74.430232 74.430232 0 0 0 0 73.035065v877.93115A74.430232 74.430232 0 0 0 75.710202 1023.98848h758.765979a74.430232 74.430232 0 0 0 75.710202-73.022265V73.163062A74.494231 74.494231 0 0 0 834.348184 0.0128zM75.518206 329.092984a37.439111 37.439111 0 0 1 38.015098-36.735127h378.231017a36.735128 36.735128 0 1 1 0 73.406256h-378.231017a37.375112 37.375112 0 0 1-38.015098-36.671129z m0 146.172528a37.375112 37.375112 0 0 1 38.015098-36.671129h150.652422a36.735128 36.735128 0 1 1 0 73.406257H113.533304a37.375112 37.375112 0 0 1-38.015098-36.671129z m561.842657 211.642974a154.556329 154.556329 0 0 1-144.252574 38.079096l-149.756444 144.380571a77.88615 77.88615 0 0 1-107.261452 0 71.358305 71.358305 0 0 1 0-103.485543l148.60447-143.54859a141.820632 141.820632 0 0 1 38.911076-140.796657 154.428332 154.428332 0 0 1 146.684517-37.823101l-38.399088 36.799126a71.294307 71.294307 0 0 0 0 103.421544 77.758153 77.758153 0 0 0 107.261452 0l37.375112-35.967146a141.116648 141.116648 0 0 1-39.231068 138.9407z m45.118928-504.372021a37.375112 37.375112 0 0 1-38.015097 36.671129h-531.187384a36.671129 36.671129 0 1 1 0-73.342258h531.187384a37.247115 37.247115 0 0 1 38.015097 36.671129z" p-id="13929"></path></svg>