<?xml version="1.0" standalone="no"?><!DOCTYPE svg PUBLIC "-//W3C//DTD SVG 1.1//EN" "http://www.w3.org/Graphics/SVG/1.1/DTD/svg11.dtd"><svg t="1773114746562" class="icon" viewBox="0 0 1043 1024" version="1.1" xmlns="http://www.w3.org/2000/svg" p-id="10571" xmlns:xlink="http://www.w3.org/1999/xlink" width="16.296875" height="16"><path d="M509.992 511.987c0.744 0 1.513 0 2.328 0.023 0.807-0.023 1.536-0.023 2.382-0.023h-4.71z" fill="#333333" p-id="10572"></path><path d="M329.4 271.336C367.4 87.843 546.957-30.104 730.45 7.9c183.494 38 301.436 217.559 263.435 401.051-38 183.495-217.557 301.435-401.05 263.436-183.494-38.005-301.436-217.557-263.437-401.052zM710.91 92.1c-88.018-18.2-179.065 11.944-238.834 79.068-59.775 67.13-79.188 161.046-50.944 246.376 28.252 85.327 99.878 149.104 187.898 167.303 136.066 28.164 269.204-59.304 297.374-195.374 28.17-136.065-59.303-269.208-195.368-297.373h-0.126zM59.061 929.813h898.035a46.452 46.452 0 1 1 40.235 69.679 46.442 46.442 0 0 1-40.235 23.219H59.061a46.44 46.44 0 0 1-40.233-23.22 46.452 46.452 0 0 1 40.233-69.678z m0-402.568H244.86c25.649 0.005 46.445 20.801 46.445 46.45s-20.796 46.445-46.445 46.45H59.06c-25.653-0.005-46.444-20.8-46.444-46.45s20.79-46.445 46.444-46.45z m0-402.566H244.86c25.649 0 46.445 20.798 46.445 46.448 0 25.65-20.796 46.445-46.445 46.45H59.06c-25.653-0.005-46.444-20.8-46.444-46.45 0-25.65 20.79-46.448 46.444-46.448z m0 0" p-id="10573"></path><path d="M867.264 545.852l139.349 241.365-80.452 46.45-139.35-241.365 80.453-46.45z m0 0" p-id="10574"></path></svg>
