<?xml version="1.0" standalone="no"?><!DOCTYPE svg PUBLIC "-//W3C//DTD SVG 1.1//EN" "http://www.w3.org/Graphics/SVG/1.1/DTD/svg11.dtd"><svg t="1773115113661" class="icon" viewBox="0 0 1024 1024" version="1.1" xmlns="http://www.w3.org/2000/svg" p-id="15207" xmlns:xlink="http://www.w3.org/1999/xlink" width="16" height="16"><path d="M961.88416 72.02816c-8.92928-23.06048-26.58304-42.0864-48.4352-52.18304-17.79712-8.41728-37.96992-12.36992-63.50848-12.47232h-616.8576v54.49728H849.92l0.79872-0.02048c21.2992 0 38.33856 4.48512 47.96416 12.57472 5.65248 4.64896 9.4208 9.97376 12.61568 17.79712 3.85024 9.58464 5.79584 21.97504 5.79584 36.78208v387.60448a330.48576 330.48576 0 0 1 54.49728 48.18944V129.024c0-22.03648-3.15392-40.6528-9.70752-56.99584zM231.05536 576.67584h242.2784c60.33408-73.40032 151.83872-120.2176 254.2592-120.2176 38.85056-0.04096 77.4144 6.81984 113.88928 20.25472V239.47264a103.315456 103.315456 0 0 0-30.208-72.94976l0.02048-0.02048a103.23968 103.23968 0 0 0-72.99072-30.208H155.58656c-56.99584 0.02048-103.15776 46.1824-103.17824 121.97888v642.27328c0 8.56064 10.87488 34.816 30.208 54.1696a103.276544 103.276544 0 0 0 72.97024 30.208h310.41536a327.438336 327.438336 0 0 1-67.05152-184.25856h-167.936c-21.56544 0-39.13728-17.59232-39.13728-39.17824 0-21.6064 17.57184-39.17824 39.13728-39.17824h173.6704c4.48512-23.12192 11.4688-45.6704 20.80768-67.2768h-194.4576c-21.6064-0.04096-39.1168-17.55136-39.15776-39.15776 0.02048-21.62688 17.55136-39.17824 39.17824-39.19872z m-48.5376-66.6624c-15.27808-15.31904-15.27808-40.12032 0-55.45984l138.87488-138.81344a54.890496 54.890496 0 0 1 39.15776-16.22016c14.80704 0 28.71296 5.75488 39.13728 16.22016l84.80768 84.84864 96.64512-96.62464h-35.24608c-21.6064-0.02048-39.13728-17.53088-39.17824-39.13728 0.02048-21.62688 17.55136-39.15776 39.17824-39.19872h135.8848c21.62688 0.02048 39.15776 17.55136 39.17824 39.19872v131.62496c0 21.56544-17.59232 39.1168-39.17824 39.1168-21.62688-0.02048-39.13728-17.55136-39.15776-39.15776v-43.06944L523.6736 472.2688a55.181312 55.181312 0 0 1-39.15776 16.22016 55.00928 55.00928 0 0 1-39.15776-16.22016l-84.86912-84.8896-122.59328 122.65472a39.284736 39.284736 0 0 1-27.648 11.44832c-10.40384 0.04096-20.3776-4.096-27.72992-11.4688z m769.06496 210.78016c2.68288-1.10592 5.3248-3.29728 8.00768-6.5536 2.68288-3.2768 3.62496-7.90528 2.92864-13.86496-1.37216-10.09664-4.01408-20.02944-8.02816-29.98272-4.01408-9.95328-8.62208-17.36704-13.84448-22.2208a16.224256 16.224256 0 0 0-10.21952-4.75136c-4.01408-0.34816-7.41376 0.4096-10.21952 2.06848-10.42432 4.87424-21.7088 6.79936-33.87392 5.95968-12.14464-0.83968-22.3232-5.46816-30.72-13.86496-8.23296-8.37632-13.35296-18.06336-15.03232-29.24544-1.82272-10.79296-0.4096-21.87264 4.11648-31.8464 0.7168-1.31072 1.37216-3.72736 2.06848-7.02464 0.7168-3.11296 0.14336-6.41024-1.59744-9.09312a48.86528 48.86528 0 0 0-11.1616-12.4928 68.096 68.096 0 0 0-15.42144-9.33888 96.59392 96.59392 0 0 0-16.896-5.7344c-3.97312-0.96256-8.02816-1.61792-12.10368-1.92512h-5.3248c-2.60096 0.43008-5.14048 1.90464-7.55712 4.34176-3.03104 2.92864-5.2224 5.8368-6.57408 8.62208-3.76832 10.4448-10.4448 19.06688-19.78368 25.86624-9.37984 6.77888-20.15232 10.19904-32.29696 10.19904-11.776 0-22.09792-3.54304-30.72-10.69056-8.64256-7.14752-14.9504-15.42144-18.71872-24.7808-1.20832-3.35872-3.05152-6.47168-5.44768-9.1136-2.56-2.92864-5.91872-4.34176-10.19904-4.46464h-1.51552c-3.3792 0.12288-7.65952 0.69632-13.04576 1.78176-5.81632 1.2288-12.00128 3.072-18.20672 5.48864a84.250624 84.250624 0 0 0-17.48992 9.1136c-5.36576 3.62496-9.1136 7.86432-11.1616 12.71808-0.98304 2.08896-1.2288 4.5056-0.75776 7.31136 0.512 2.80576 1.08544 5.20192 1.82272 7.2704 0.38912 2.06848 0.88064 5.59104 1.35168 10.4448 0.49152 4.87424 0.49152 10.32192 0 16.13824-0.45056 5.85728-1.67936 11.91936-3.62496 17.96096-1.96608 6.10304-4.97664 11.30496-9.09312 15.4624-8.74496 8.25344-18.67776 13.23008-29.98272 14.78656-10.99776 1.59744-22.2208 0.24576-32.54272-3.8912-2.82624-0.88064-5.71392-1.57696-8.62208-2.06848-2.53952-0.34816-5.24288 0.4096-8.04864 2.06848-3.39968 2.06848-6.656 5.2224-9.54368 9.60512a93.36832 93.36832 0 0 0-7.80288 14.336 91.287552 91.287552 0 0 0-5.46816 16.13824c-1.31072 5.57056-2.048 10.67008-2.048 15.1552 0 4.11648 1.08544 8.27392 3.15392 12.26752 2.048 3.9936 4.608 6.4512 7.76192 7.55712 10.48576 4.096 20.09088 11.03872 28.40576 20.00896 8.3968 8.97024 12.55424 19.70176 12.55424 31.82592 0 11.776-4.15744 22.46656-12.55424 32.07168-8.33536 9.58464-17.69472 16.50688-28.13952 20.64384-5.95968 2.02752-9.37984 6.92224-10.4448 14.56128-0.63488 4.13696-0.26624 9.48224 1.06496 15.91296 1.35168 6.43072 3.39968 12.75904 5.95968 18.8416 2.68288 6.08256 5.59104 11.53024 8.84736 16.60928 3.29728 4.99712 6.94272 8.27392 10.71104 9.60512 4.85376 2.21184 9.70752 2.43712 14.56128 1.10592 7.22944-2.3552 14.7456-3.74784 22.34368-4.13696 6.20544-0.34816 12.86144 0.28672 19.78368 1.8432 6.81984 1.51552 13.02528 5.07904 17.75616 10.21952 7.86432 8.58112 12.36992 18.16576 13.2096 28.38528 0.96256 10.32192-0.59392 19.43552-4.38272 27.46368-2.80576 5.9392-3.97312 10.5472-3.87072 13.84448 0.26624 3.29728 1.20832 6.20544 2.88768 8.62208 2.43712 3.50208 6.08256 6.92224 10.93632 10.42432 4.85376 3.42016 10.3424 6.59456 16.40448 9.1136 5.89824 2.62144 11.9808 4.8128 18.20672 6.57408 6.08256 1.69984 11.55072 2.53952 16.384 2.53952 3.9936 0.04096 7.94624-0.96256 11.44832-2.90816 3.39968-1.92512 6.06208-4.97664 7.76192-9.07264 3.72736-10.46528 10.4448-19.70176 20.02944-27.48416 9.56416-7.8848 20.29568-11.75552 32.0512-11.75552 12.14464 0 22.79424 4.03456 32.07168 11.75552 9.216 7.92576 15.7696 17.14176 19.51744 27.9552h0.49152c0.96256 2.6624 2.90816 5.3248 5.69344 7.76192 2.80576 2.41664 5.71392 3.64544 8.86784 3.64544 4.48512 0 9.80992-0.73728 15.6672-2.06848 5.79584-1.35168 11.44832-3.25632 16.896-5.71392a115.38432 115.38432 0 0 0 14.80704-8.13056c4.608-2.90816 7.90528-5.8368 9.97376-8.64256 4.5056-6.90176 5.09952-13.94688 1.55648-20.8896-4.62848-10.09664-6.06208-20.62336-4.7104-31.82592 1.3312-11.18208 6.16448-21.01248 14.56128-29.75744 3.7888-4.096 8.54016-7.14752 13.84448-8.86784 5.26336-1.69984 10.69056-2.82624 16.19968-3.39968 5.28384-0.57344 10.62912-0.4096 15.89248 0.49152 5.20192 0.94208 9.48224 1.80224 13.0048 2.90816 3.8912 1.31072 7.2704 2.08896 10.4448 2.08896 3.13344 0 6.7584-1.10592 10.87488-3.1744 4.15744-2.048 7.94624-5.57056 11.44832-10.4448 3.4816-4.85376 6.43072-10.32192 8.8064-16.384 2.4576-6.10304 4.25984-12.02176 5.2224-18.00192 0.96256-5.95968 1.2288-11.03872 0.512-15.1552-1.49504-4.97664-3.9936-8.99072-8.00768-11.776-1.96608-1.536-4.03456-2.92864-6.20544-4.15744-10.46528-3.87072-18.8416-10.17856-25.27232-19.0464-6.41024-8.88832-9.58464-19.31264-9.58464-31.06816 0-12.288 3.74784-23.10144 11.40736-32.68608 7.65952-9.4208 16.75264-16.11776 27.58656-19.98848z m-127.50848 95.92832a116.36736 116.36736 0 0 1-24.1664 36.31104c-10.21952 10.4448-22.34368 18.57536-36.18816 24.53504-14.00832 5.91872-28.672 8.84736-44.3392 8.84736-15.6672 0-30.24896-2.92864-43.97056-8.84736-13.70112-5.95968-25.72288-14.09024-35.9424-24.53504-10.19904-10.46528-18.20672-22.58944-24.1664-36.31104-5.9392-13.7216-8.84736-28.40576-8.84736-44.09344 0-15.64672 3.03104-30.35136 8.84736-44.07296a112.582656 112.582656 0 0 1 24.1664-35.9424c10.21952-10.3424 22.24128-18.35008 35.9424-24.2688 13.63968-5.95968 28.30336-8.84736 43.97056-8.84736 15.6672 0 30.47424 2.88768 44.3392 8.84736a115.07712 115.07712 0 0 1 36.18816 24.2688c10.15808 10.19904 18.18624 22.2208 24.1664 35.9424 5.95968 13.7216 8.86784 28.42624 8.86784 44.07296 0 15.68768-2.90816 30.37184-8.86784 44.09344z" p-id="15208"></path></svg>