<?xml version="1.0" standalone="no"?><!DOCTYPE svg PUBLIC "-//W3C//DTD SVG 1.1//EN" "http://www.w3.org/Graphics/SVG/1.1/DTD/svg11.dtd"><svg t="1729507663250" class="icon" viewBox="0 0 1024 1024" version="1.1" xmlns="http://www.w3.org/2000/svg" p-id="4271" xmlns:xlink="http://www.w3.org/1999/xlink" width="16" height="16"><path d="M963.4 494c-8 15.2-23.8 24.6-41 24.6h-65.4v410.6c0 8-3.2 15.6-8.8 21.2-5.6 5.6-13.2 8.8-21.2 8.8l-136.2-0.2c-7.2 0-13.8-2.6-19-6.8V639l49-46.4v306.2l76.2 0.2V488.4c0-16.6 13.4-30 30-30H900l-38-72.8h-100.4l-22.2-60h141c11.2 0 21.4 6.2 26.6 16.2l55.4 106c8.2 14 8.8 31.6 1 46.2zM399.2 186.6h-170c-37.6 0-68.2 30.8-68.2 68.6v171.8c0 37.8 30.6 68.6 68.2 68.6h38.2c-3.2-19.8-1.6-40.4 5-60h-43.2c-4.6 0-8.2-4-8.2-8.6v-171.8c0-4.8 3.8-8.6 8.2-8.6h170c0.8 0 1.4 0.2 2 0.2h65.8c-4.2-34-33-60.2-67.8-60.2zM206 674.8c-16.6 0-30 13.4-30 30s13.4 30 30 30h127.2c16.6 0 30-13.4 30-30s-13.4-30-30-30H206zM795.8 65H143.2c-48.6 0-88.2 39.6-88.2 88.2v652.6c0 48.6 39.6 88.2 88.2 88.2h236v-60h-236c-15.6 0-28.2-12.6-28.2-28.2V153.2c0-15.6 12.6-28.2 28.2-28.2h652.6c15.6 0 28.2 12.6 28.2 28.2v126.6h60V153.2c0-48.6-39.4-88.2-88.2-88.2zM298.8 561.4H206c-16.6 0-30 13.4-30 30s13.4 30 30 30h127.2c7.8 0 14.8-3 20.2-7.8l-48.4-45.8c-2-2.2-4.2-4.4-6.2-6.4z m323 367V624.8c0-4.6 2-9.2 5.4-12.4l85.6-81.2c22.2-21.2 29.8-53.4 19-82l-49.4-132.8c-4.4-11.8-15.6-19.6-28.2-19.6H564c-16.6 0-30 13.4-30 30v87.8h-16v-87.8c0-16.6-13.4-30-30-30h-90.2c-12.6 0-23.8 7.8-28.2 19.6l-49.4 132.8c-10.6 28.8-3.2 61 19 82l85.6 81.2c3.4 3.2 5.4 7.8 5.4 12.4v303.6c0 16.6 13.4 30 30 30h131.6c16.6 0 30-13.4 30-30z m-131.4-303.6c0-21-8.8-41.4-24-56l-85.6-81.2c-4.8-4.6-6.4-11.4-4.2-17.6l42-113.4H458v87.8c0 16.6 13.4 30 30 30h76c16.6 0 30-13.4 30-30v-87.8h39.4l42 113.4c2.2 6.2 0.6 13.2-4.2 17.6l-85.6 81.2c-15.2 14.4-24 34.8-24 56v273.6H490V624.8z" p-id="4272"></path></svg>