<?xml version="1.0" standalone="no"?><!DOCTYPE svg PUBLIC "-//W3C//DTD SVG 1.1//EN" "http://www.w3.org/Graphics/SVG/1.1/DTD/svg11.dtd"><svg t="1733739933076" class="icon" viewBox="0 0 1024 1024" version="1.1" xmlns="http://www.w3.org/2000/svg" p-id="49760" xmlns:xlink="http://www.w3.org/1999/xlink" width="200" height="200"><path d="M924 136H100c-19.8 0-36-16.2-36-36s16.2-36 36-36h824c19.8 0 36 16.2 36 36s-16.2 36-36 36zM924 389.3H420c-19.8 0-36-16.2-36-36s16.2-36 36-36h504c19.8 0 36 16.2 36 36s-16.2 36-36 36zM924 642.7H420c-19.8 0-36-16.2-36-36s16.2-36 36-36h504c19.8 0 36 16.2 36 36s-16.2 36-36 36zM924 896H100c-19.8 0-36-16.2-36-36s16.2-36 36-36h824c19.8 0 36 16.2 36 36s-16.2 36-36 36zM281.8 464.8L90.6 319.6c-11.8-6.8-26.6 1.7-26.6 15.3v290.3c0 13.6 14.8 22.2 26.6 15.3l191.3-145.2c11.8-6.7 11.8-23.7-0.1-30.5z" p-id="49761"></path></svg>
