<?xml version="1.0" standalone="no"?><!DOCTYPE svg PUBLIC "-//W3C//DTD SVG 1.1//EN" "http://www.w3.org/Graphics/SVG/1.1/DTD/svg11.dtd"><svg t="1723111639526" class="icon" viewBox="0 0 1024 1024" version="1.1" xmlns="http://www.w3.org/2000/svg" p-id="8511" xmlns:xlink="http://www.w3.org/1999/xlink" width="16" height="16"><path d="M877.331692 1024H719.556923a41.511385 41.511385 0 0 1 0-83.022769h157.774769a63.015385 63.015385 0 0 0 63.645539-63.645539V719.556923a41.511385 41.511385 0 0 1 83.022769 0v157.774769A147.652923 147.652923 0 0 1 877.331692 1024zM304.443077 1024H146.668308A147.652923 147.652923 0 0 1 0 877.331692V719.556923a42.574769 42.574769 0 0 1 41.511385-41.511385 42.574769 42.574769 0 0 1 41.511384 41.511385v157.774769a63.015385 63.015385 0 0 0 63.645539 63.645539H304.443077a41.511385 41.511385 0 0 1 0 83.022769zM982.488615 345.954462a42.574769 42.574769 0 0 1-41.511384-41.511385V146.668308a63.015385 63.015385 0 0 0-63.645539-63.645539H719.556923a42.574769 42.574769 0 0 1-41.511385-41.511384A42.574769 42.574769 0 0 1 719.556923 0h157.774769A147.652923 147.652923 0 0 1 1024 146.668308V304.443077a42.574769 42.574769 0 0 1-41.511385 41.511385z m-940.97723 0A42.574769 42.574769 0 0 1 0 304.443077V146.668308A147.652923 147.652923 0 0 1 146.668308 0H307.2a40.251077 40.251077 0 0 1 38.754462 41.511385A42.574769 42.574769 0 0 1 304.443077 83.022769H146.668308a63.015385 63.015385 0 0 0-63.645539 63.645539V304.443077a42.574769 42.574769 0 0 1-41.511384 41.511385z"  p-id="8512"></path><path d="M796.475077 213.346462H270.217846a57.068308 57.068308 0 0 0-56.871384 56.871384v526.257231a57.068308 57.068308 0 0 0 56.871384 56.871385h526.257231a57.068308 57.068308 0 0 0 56.871385-56.871385V270.217846a57.068308 57.068308 0 0 0-56.871385-56.871384z" fill="#2c2c2c" p-id="8513"></path><path d="M727.591385 554.692923H296.408615a42.732308 42.732308 0 0 1 0-85.346461h431.18277a42.732308 42.732308 0 0 1 0 85.346461z" fill="#e6e6e6" p-id="8514" data-spm-anchor-id="a313x.search_index.0.i2.74d23a81QuSQFe" class=""></path></svg>
