<?xml version="1.0" standalone="no"?><!DOCTYPE svg PUBLIC "-//W3C//DTD SVG 1.1//EN" "http://www.w3.org/Graphics/SVG/1.1/DTD/svg11.dtd"><svg t="1765613501511" class="icon" viewBox="0 0 1024 1024" version="1.1" xmlns="http://www.w3.org/2000/svg" p-id="12750" xmlns:xlink="http://www.w3.org/1999/xlink" width="16" height="16"><path d="M966.4 851.2h-57.6v115.2c0 32-25.6 57.6-57.6 57.6s-57.6-25.6-57.6-57.6v-115.2h-57.6c-32 0-57.6-25.6-57.6-57.6v-115.2c0-32 25.6-57.6 57.6-57.6h57.6V57.6c0-32 25.6-57.6 57.6-57.6s57.6 25.6 57.6 57.6v569.6h57.6c32 0 57.6 25.6 57.6 57.6v115.2c0 25.6-25.6 51.2-57.6 51.2z m0-166.4h-230.4v115.2h230.4v-115.2zM627.2 396.8h-57.6v569.6c0 32-25.6 57.6-57.6 57.6s-57.6-25.6-57.6-57.6V396.8h-57.6c-32 0-57.6-25.6-57.6-57.6V230.4c0-32 25.6-57.6 57.6-57.6h57.6V57.6c0-32 25.6-57.6 57.6-57.6s57.6 25.6 57.6 57.6v115.2h57.6c32 0 57.6 25.6 57.6 57.6v115.2c0 25.6-25.6 51.2-57.6 51.2z m0-166.4H396.8v115.2h230.4V230.4z m-288 563.2c0 32-25.6 57.6-57.6 57.6h-51.2v115.2c0 32-25.6 57.6-57.6 57.6s-57.6-25.6-57.6-57.6v-115.2H57.6c-32 0-57.6-25.6-57.6-57.6v-115.2c0-32 25.6-57.6 57.6-57.6h57.6V57.6c0-32 25.6-57.6 57.6-57.6s57.6 25.6 57.6 57.6v569.6h57.6c32 0 57.6 25.6 57.6 57.6v108.8z m-57.6-108.8H57.6v115.2h230.4v-115.2z" p-id="12751"></path></svg>