<?xml version="1.0" standalone="no"?><!DOCTYPE svg PUBLIC "-//W3C//DTD SVG 1.1//EN" "http://www.w3.org/Graphics/SVG/1.1/DTD/svg11.dtd"><svg t="1714035637199" class="icon" viewBox="0 0 1024 1024" version="1.1" xmlns="http://www.w3.org/2000/svg" p-id="8212" xmlns:xlink="http://www.w3.org/1999/xlink" width="16" height="16"><path d="M804.579556 0c45.852444 0 83.000889 37.148444 83.000888 82.944v868.124444c0 24.519111-19.911111 44.430222-44.487111 44.430223h-15.758222a44.430222 44.430222 0 0 1-44.430222-44.430223v-26.624H189.952v26.680889c0 24.519111-19.911111 44.430222-44.430222 44.430223H129.706667A44.430222 44.430222 0 0 1 85.333333 951.125333V83.000889C85.333333 37.091556 122.481778 0 168.277333 0z m-57.287112 497.777778H225.336889a35.555556 35.555556 0 0 0-35.555556 35.555555v284.387556c0 19.626667 15.928889 35.555556 35.555556 35.555555h521.955555c19.626667 0 35.555556-15.928889 35.555556-35.555555V533.333333a35.555556 35.555556 0 0 0-35.555556-35.555555z m-34.588444 51.2c17.749333 0 32.142222 14.336 32.142222 32.085333v195.015111a32.142222 32.142222 0 0 1-32.142222 32.142222H536.462222a32.142222 32.142222 0 0 1-32.085333-32.142222v-195.015111c0-17.749333 14.392889-32.085333 32.085333-32.085333z m-275.683556 54.784c17.749333 0 32.085333 14.392889 32.085334 32.142222v140.174222a32.142222 32.142222 0 0 1-32.085334 32.142222H260.778667a32.142222 32.142222 0 0 1-32.085334-32.142222v-140.174222c0-17.749333 14.336-32.142222 32.085334-32.142222z m310.044445-503.751111H225.336889a35.555556 35.555556 0 0 0-35.555556 35.555555v250.311111c0 19.683556 15.928889 35.612444 35.555556 35.612445h521.728c19.626667 0 35.555556-15.928889 35.555555-35.555556V135.566222a35.555556 35.555556 0 0 0-35.555555-35.555555z m-34.360889 101.774222c17.749333 0 32.142222 14.392889 32.142222 32.085333v118.613334a32.142222 32.142222 0 0 1-32.142222 32.085333H536.462222a32.142222 32.142222 0 0 1-32.085333-32.085333V233.813333c0-17.692444 14.392889-32.085333 32.085333-32.085333h176.241778zM437.020444 136.078222c17.749333 0 32.085333 14.392889 32.085334 32.142222v184.263112a32.142222 32.142222 0 0 1-32.085334 32.085333H260.778667a32.142222 32.142222 0 0 1-32.085334-32.085333V168.220444c0-17.749333 14.336-32.085333 32.085334-32.085333h176.241777z" p-id="8213"></path></svg>
