<?xml version="1.0" standalone="no"?><!DOCTYPE svg PUBLIC "-//W3C//DTD SVG 1.1//EN" "http://www.w3.org/Graphics/SVG/1.1/DTD/svg11.dtd"><svg t="1721122796963" class="icon" viewBox="0 0 1024 1024" version="1.1" xmlns="http://www.w3.org/2000/svg" p-id="8479" xmlns:xlink="http://www.w3.org/1999/xlink" width="16" height="16"><path d="M505.42 70.49H134.77c-21.4 0-35.88 13.84-36.76 35.03v812.55c0.89 21.2 15.37 35.04 36.76 35.04h370.65c22.28 0 37-14.73 37-37.05V107.53c0-22.31-14.71-37.04-37-37.04zM172.43 362.4c0.01-20.22 16.37-36.6 36.56-36.6h112.33c20.19 0 36.55 16.39 36.55 36.6v1.12c0 20.21-16.37 36.6-36.55 36.6H208.99c-20.19 0-36.56-16.39-36.56-36.6v-1.12z m36.56 113.36h75.34c20.18 0 36.55 16.39 36.55 36.6s-16.37 36.6-36.55 36.6h-75.34c-20.19 0-36.56-16.39-36.56-36.6 0.02-20.22 16.37-36.6 36.56-36.6z m-36.56 184.11c0.01-20.21 16.37-36.6 36.56-36.6h112.33c20.19 0 36.55 16.39 36.55 36.6v1.12c0 20.21-16.37 36.6-36.55 36.6H208.99c-20.19 0-36.56-16.39-36.56-36.6v-1.12z m259.9 149.75c-0.01 20.22-16.37 36.6-36.56 36.6H209c-20.18 0-36.55-16.39-36.55-36.6v-1.12c0-20.21 16.37-36.6 36.55-36.6h186.77c20.19 0 36.56 16.39 36.56 36.6v1.12z m0-594.73c-0.01 20.21-16.37 36.6-36.56 36.6H209c-20.18 0-36.55-16.39-36.55-36.6v-1.12c0-20.21 16.37-36.6 36.55-36.6h186.77c20.19 0 36.56 16.39 36.56 36.6v1.12z m532.21 678.42H801.59c2.14-0.93 4.11-2.35 5.68-4.35l113.87-144.28c7.64-9.68 0.74-23.91-11.59-23.91h-84.41V302.52h84.41c12.33 0 19.23-14.23 11.59-23.91L807.27 134.33c-1.57-1.99-3.54-3.41-5.68-4.34h162.95c16.27 0 29.46-13.19 29.46-29.46s-13.19-29.46-29.46-29.46H626.82c-16.27 0-29.46 13.19-29.46 29.46s13.19 29.46 29.46 29.46h162.95c-2.13 0.93-4.1 2.35-5.67 4.34L670.22 278.61c-7.64 9.69-0.75 23.91 11.59 23.91h84.41v418.25h-84.41c-12.34 0-19.23 14.23-11.59 23.91l113.87 144.28c1.57 1.99 3.54 3.42 5.68 4.35H626.82c-16.27 0-29.46 13.19-29.46 29.46s13.19 29.46 29.46 29.46h337.73c16.27 0 29.46-13.19 29.46-29.46s-13.2-29.46-29.47-29.46z" p-id="8480"></path></svg>