<?xml version="1.0" standalone="no"?><!DOCTYPE svg PUBLIC "-//W3C//DTD SVG 1.1//EN" "http://www.w3.org/Graphics/SVG/1.1/DTD/svg11.dtd"><svg t="1747016440302" class="icon" viewBox="0 0 1024 1024" version="1.1" xmlns="http://www.w3.org/2000/svg" p-id="6406" xmlns:xlink="http://www.w3.org/1999/xlink" width="16" height="16"><path d="M512 64.170667C264.533333 64.170667 64.170667 264.533333 64.170667 512S264.533333 959.829333 512 959.829333c61.098667 0 119.125333-12.288 172.032-34.133333v-83.968c-51.541333 26.965333-109.909333 41.984-172.032 41.984-205.482667 0-372.053333-166.570667-372.053333-372.053333S306.517333 139.946667 512 139.946667s372.053333 166.570667 372.053333 372.053333c0 46.762667-8.533333 91.477333-24.576 132.778667h80.554667c12.970667-41.984 20.138667-86.698667 20.138667-132.778667-0.341333-247.466667-200.704-447.829333-448.170667-447.829333z" fill="" p-id="6407"></path><path d="M686.762667 638.634667l-142.677334-103.082667V288.085333c0-4.437333-3.754667-7.850667-7.850666-7.850666H488.106667c-4.437333 0-7.850667 3.754667-7.850667 7.850666v275.456c0 2.730667 1.365333 5.12 3.413333 6.485334l165.546667 120.490666c3.754667 2.730667 8.533333 1.706667 11.264-1.706666l28.672-38.912c2.048-3.754667 1.024-8.874667-2.389333-11.264zM728.746667 678.570667h234.496c3.754667 0 6.826667 3.072 6.826666 6.826666v231.424c0 3.754667-3.072 6.826667-6.826666 6.826667h-234.496c-3.754667 0-6.826667-3.072-6.826667-6.826667v-231.424c-0.341333-3.754667 2.730667-6.826667 6.826667-6.826666z" fill="" p-id="6408"></path></svg>