<?xml version="1.0" standalone="no"?><!DOCTYPE svg PUBLIC "-//W3C//DTD SVG 1.1//EN" "http://www.w3.org/Graphics/SVG/1.1/DTD/svg11.dtd"><svg t="1732865371989" class="icon" viewBox="0 0 1024 1024" version="1.1" xmlns="http://www.w3.org/2000/svg" p-id="14294" xmlns:xlink="http://www.w3.org/1999/xlink" width="200" height="200"><path d="M4.608 235.52v531.968s7.68 57.856 25.088 76.288c14.848 14.336 31.232 26.624 49.152 37.376l353.792 102.4s31.744 9.728 39.936 5.632c8.704-4.096 5.632-16.896 5.632-16.896V372.224L4.608 235.52z m1018.88 0l-151.04 43.52v230.4L773.12 537.6V307.2l-227.328 65.024V921.6s-1.536 54.784 5.12 65.024 39.936-4.096 39.936-4.096l319.488-91.648s67.584-18.432 92.16-44.544 20.992-135.68 20.992-135.68V235.52z m0.512-54.784L541.184 39.424c-9.216-2.56-18.432-4.096-28.16-5.12-9.728 1.024-19.456 3.072-28.672 5.632l-148.992 43.52L849.92 230.4l174.08-49.664zM0 177.152l511.488 143.872 201.216-56.832L199.168 119.808 0 177.152z" p-id="14295"></path></svg>