<?xml version="1.0" standalone="no"?><!DOCTYPE svg PUBLIC "-//W3C//DTD SVG 1.1//EN" "http://www.w3.org/Graphics/SVG/1.1/DTD/svg11.dtd"><svg t="1765613971319" class="icon" viewBox="0 0 1024 1024" version="1.1" xmlns="http://www.w3.org/2000/svg" p-id="27020" xmlns:xlink="http://www.w3.org/1999/xlink" width="16" height="16"><path d="M842.7 960H181.3C116.6 960 64 907.4 64 842.7V181.3C64 116.6 116.6 64 181.3 64h474.9c31.3 0 60.8 12.2 82.9 34.4l186.5 186.5c22.2 22.2 34.4 51.6 34.4 82.9v474.9c0 64.7-52.6 117.3-117.3 117.3zM181.3 115.4c-36.3 0-65.9 29.6-65.9 65.9v661.4c0 36.3 29.6 65.9 65.9 65.9h661.4c36.3 0 65.9-29.6 65.9-65.9V367.8c0-17.6-6.9-34.1-19.3-46.6L702.8 134.7c-12.4-12.4-29-19.3-46.6-19.3H181.3z" p-id="27021"></path><path d="M559 231.8H267.6c-33.1 0-60-26.9-60-60V64H619v107.8c0 33.1-26.9 60-60 60zM259 115.4v56.4c0 4.7 3.8 8.6 8.6 8.6H559c4.7 0 8.6-3.8 8.6-8.6v-56.4H259zM792.7 960H231.3V574.7c0-33.1 26.9-60 60-60h441.5c33.1 0 60 26.9 60 60V960z m-510-51.4h458.6V574.7c0-4.7-3.8-8.6-8.6-8.6H291.3c-4.7 0-8.6 3.8-8.6 8.6v333.9z" p-id="27022"></path><path d="M385.6 659.9h252.9v51.4H385.6z" p-id="27023"></path></svg>
