<?xml version="1.0" standalone="no"?><!DOCTYPE svg PUBLIC "-//W3C//DTD SVG 1.1//EN" "http://www.w3.org/Graphics/SVG/1.1/DTD/svg11.dtd"><svg t="1765613757407" class="icon" viewBox="0 0 1024 1024" version="1.1" xmlns="http://www.w3.org/2000/svg" p-id="19682" xmlns:xlink="http://www.w3.org/1999/xlink" width="16" height="16"><path d="M76.8 115.2a43.52 43.52 0 0 0-43.52 43.52v706.56c0 24.064 19.5072 43.52 43.52 43.52h122.88v-76.8H110.08V192H199.68v-76.8H76.8zM947.2 908.8c24.0128 0 43.52-19.456 43.52-43.52V158.72a43.52 43.52 0 0 0-43.52-43.52h-122.88v76.8h89.6v640H824.32v76.8h122.88zM360.3968 368.0256h-79.872v-76.8h99.84a38.4 38.4 0 0 1 31.5392 16.384L509.44 447.232l97.5872-139.6224c7.168-10.24 18.944-16.384 31.488-16.384h99.84v76.8h-79.872l-102.1952 146.2272 99.7376 142.7456h82.432v76.8h-102.4a38.4 38.4 0 0 1-31.488-16.384L509.44 581.2224l-95.1296 136.1408a38.4 38.4 0 0 1-31.488 16.384h-102.4v-76.8h82.432l99.7376-142.7456-102.2464-146.2784z" p-id="19683"></path></svg>
