<?xml version="1.0" standalone="no"?><!DOCTYPE svg PUBLIC "-//W3C//DTD SVG 1.1//EN" "http://www.w3.org/Graphics/SVG/1.1/DTD/svg11.dtd"><svg t="1733739613275" class="icon" viewBox="0 0 1024 1024" version="1.1" xmlns="http://www.w3.org/2000/svg" p-id="33714" xmlns:xlink="http://www.w3.org/1999/xlink" width="200" height="200"><path d="M790.096211 733.397884v-193.406833c0-168.14909-124.455006-299.86559-283.327679-299.86559-158.876987 0-283.327679 131.7165-283.327679 299.86559v193.402518c-51.719264 20.666995-88.371899 71.242887-88.371899 130.249532v4.314612c0 77.326491 62.907055 140.224916 140.224916 140.224916h462.94501c77.317861 0 140.224916-62.898425 140.224916-140.224916v-4.314612c0.004315-59.006645-36.65695-109.582536-88.367585-130.245217z m-19.493421 134.559829c0 17.538901-14.820695 32.359596-32.359596 32.359596H275.29387c-17.538901 0-32.359596-14.820695-32.359596-32.359596v-4.314612c0-17.534586 14.820695-32.359596 32.359596-32.359596h307.899399c29.779458 0 53.93266-24.148888 53.93266-53.93266 0-29.779458-24.153202-53.93266-53.93266-53.93266h-251.887096v-183.427134c0-109.457412 75.432376-192.00027 175.462359-192.00027s175.462359 82.542858 175.462359 192.00027v287.508538h36.255691c6.12675 2.420498 12.775569 3.783915 19.752298 3.783916 17.534586 0 32.359596 14.82501 32.359596 32.359596v4.314612h0.004314zM502.065604 183.832708c-29.783772 0-53.93266-24.148888-53.93266-53.93266V72.869496c0-29.783772 24.148888-53.93266 53.93266-53.93266 29.792401 0 53.93266 24.148888 53.93266 53.93266v57.030552c0 29.783772-24.140259 53.93266-53.93266 53.93266zM766.361526 277.964615c-13.802446 0-27.604893-5.263828-38.141177-15.795797-21.059625-21.059625-21.059625-55.209785 0-76.273725l51.236027-51.236027c21.06394-21.06394 55.218415-21.06394 76.278039 0 21.06394 21.059625 21.06394 55.209785 0 76.273725l-51.236027 51.236027a53.755761 53.755761 0 0 1-38.136862 15.795797zM942.384784 505.815003h-65.797845c-29.779458 0-53.93266-24.148888-53.93266-53.93266s24.153202-53.93266 53.93266-53.93266h65.797845c29.779458 0 53.93266 24.148888 53.93266 53.93266s-24.153202 53.93266-53.93266 53.93266zM264.684237 265.271024c-13.802446 0-27.600578-5.263828-38.132548-15.795797L175.311347 198.2392c-21.06394-21.059625-21.06394-55.209785-0.004314-76.273725 21.06394-21.06394 55.209785-21.06394 76.273725-0.004315l51.240341 51.236027c21.06394 21.059625 21.06394 55.209785 0.004315 76.273725a53.777334 53.777334 0 0 1-38.141177 15.800112zM129.774924 493.121412H83.23751c-29.783772 0-53.93266-24.148888-53.93266-53.93266s24.148888-53.93266 53.93266-53.93266h46.537414c29.783772 0 53.93266 24.148888 53.93266 53.93266s-24.148888 53.93266-53.93266 53.93266z" p-id="33715"></path><path d="M397.664918 493.121412h86.292256v167.730572h-86.292256z" p-id="33716"></path></svg>